<?xml version="1.0" encoding="UTF-8"?>
<svg id="Layer_1" data-name="Layer 1" xmlns="http://www.w3.org/2000/svg" viewBox="0 0 990.28209 261.99987">
  <defs>
    <style>
      .cls-1 {
        fill: #322e87;
      }

      .cls-1, .cls-2, .cls-3, .cls-4 {
        stroke-width: 0px;
      }

      .cls-2 {
        fill: #dcc24f;
      }

      .cls-3 {
        fill: #dbc24f;
      }

      .cls-4 {
        fill: #312e87;
      }

      .cls-5 {
        fill: none;
        stroke: #dbc34d;
        stroke-miterlimit: 10;
        stroke-width: 3px;
      }
    </style>
  </defs>
  <g>
    <path class="cls-3" d="m277.21569,178.93877l8.90186-42.11816h10.88965c2.61182,0,4.84424.3418,6.69775,1.02246,1.85352.68262,3.27002,1.72461,4.24951,3.12598.97949,1.40234,1.46924,3.19824,1.46924,5.3877,0,1.9209-.39404,3.61035-1.18115,5.07031-.7876,1.45996-1.89697,2.65527-3.32764,3.58594-1.43066.93262-3.10645,1.58008-5.02686,1.94531v.25879c1.95898.53809,3.58154,1.52246,4.86865,2.95312,1.28662,1.43066,1.93018,3.31836,1.93018,5.66113,0,2.88086-.70117,5.2959-2.10303,7.24512-1.40234,1.94922-3.32275,3.41406-5.76172,4.39355-2.43945.97949-5.23389,1.46875-8.3833,1.46875h-13.22314Zm5.73291-4.17676h7.7207c2.26611,0,4.21045-.34082,5.8335-1.02344,1.62305-.68066,2.87598-1.68457,3.75977-3.00977.8833-1.3252,1.3252-2.95801,1.3252-4.89746,0-2.0166-.65332-3.66797-1.95898-4.95508-1.30615-1.28711-3.44775-1.93066-6.42432-1.93066h-6.91406l-3.3418,15.81641Zm4.20605-19.87793h7.20215c1.86279,0,3.54785-.2832,5.05615-.85059,1.50732-.56543,2.7124-1.44043,3.61523-2.62109.90234-1.18164,1.354-2.67383,1.354-4.47949,0-1.9209-.62451-3.38965-1.87256-4.4082-1.24854-1.01758-3.28418-1.52637-6.10742-1.52637h-6.28027l-2.96729,13.88574Z"/>
    <path class="cls-3" d="m311.75719,178.93877l9.56445-44.82617h4.78223l-9.53564,44.82617h-4.81104Z"/>
    <path class="cls-3" d="m336.44616,179.51494c-1.70947,0-3.20752-.41309-4.49414-1.23828-1.28711-.82617-2.28564-2.0459-2.99609-3.65918-.71094-1.61328-1.06592-3.58105-1.06592-5.90527s.24463-4.56152.73486-6.71289c.48926-2.15039,1.18555-4.14844,2.08838-5.99219.90234-1.84375,1.99219-3.45703,3.27002-4.83984,1.27686-1.38281,2.7124-2.45801,4.30664-3.22656,1.59375-.76758,3.31299-1.15234,5.15674-1.15234,1.4209,0,2.65479.26953,3.70166.80664,1.04688.53809,1.92041,1.24414,2.62207,2.11719.70068.875,1.25293,1.80078,1.65625,2.78027h.28809l1.84375-5.12793h3.65869l-6.68359,31.57422h-3.83154l.86426-6.10742h-.23047c-.86426,1.15234-1.85352,2.23828-2.96729,3.25586-1.11426,1.01758-2.3335,1.84375-3.65869,2.47754s-2.74658.9502-4.26367.9502Zm1.55566-3.97559c1.47852,0,2.94287-.54199,4.39355-1.62793,1.44971-1.08398,2.75537-2.55371,3.91797-4.40723,1.16162-1.85352,2.0498-3.94141,2.66455-6.26562.30713-1.13281.51367-2.17578.61963-3.12598.10498-.95117.1582-1.83887.1582-2.66504,0-1.97754-.52344-3.57617-1.57031-4.79688-1.04688-1.21875-2.47266-1.8291-4.27783-1.8291-1.28711,0-2.49707.32227-3.62988.96484-1.1333.64453-2.15625,1.53711-3.06787,2.67969-.9126,1.14258-1.69531,2.46777-2.34814,3.97559-.65332,1.50781-1.15723,3.14551-1.51221,4.91211-.35596,1.7666-.5332,3.58203-.5332,5.44434,0,2.20898.45117,3.88477,1.354,5.02734.90234,1.14258,2.17969,1.71387,3.83154,1.71387Z"/>
    <path class="cls-3" d="m372.97545,179.51494c-2.34326,0-4.39355-.44629-6.15039-1.33984-1.75781-.89258-3.12158-2.21289-4.09082-3.96094-.97021-1.74707-1.45508-3.91797-1.45508-6.51074,0-2.24707.24512-4.40723.73438-6.48145.49023-2.07422,1.20508-3.98535,2.14648-5.7334.94092-1.74707,2.0835-3.27441,3.42822-4.58008,1.34424-1.30566,2.87598-2.31934,4.59521-3.04004,1.71826-.71973,3.5957-1.08008,5.63184-1.08008,1.36328,0,2.72266.12988,4.07617.38867,1.35449.25977,2.57861.62988,3.67334,1.10938l-1.354,4.0332c-.80664-.38379-1.75732-.72949-2.85205-1.03711-1.09473-.30664-2.2666-.46094-3.51465-.46094-1.74805,0-3.3374.44238-4.76807,1.3252-1.43066.88379-2.66016,2.1084-3.6875,3.67285-1.02734,1.56641-1.81982,3.35645-2.37646,5.37305-.55713,2.0166-.83545,4.16797-.83545,6.45312,0,1.63281.28809,3.03906.86426,4.2207.57617,1.18066,1.40674,2.08887,2.49219,2.72266,1.08447.63379,2.38574.9502,3.90332.9502,1.40186,0,2.72266-.19141,3.96094-.57617,1.23926-.38379,2.45361-.84473,3.64453-1.38281v4.09082c-1.05664.53809-2.26172.97949-3.61523,1.3252-1.35449.3457-2.83789.51855-4.45117.51855Z"/>
    <path class="cls-3" d="m386.74596,178.93877l9.50684-44.82617h4.83984l-3.91797,18.29395c-.42285,1.99707-.81641,3.70703-1.18115,5.12793-.36523,1.4209-.68213,2.57812-.95068,3.4707-.26904.89355-.4707,1.58008-.60498,2.06055h.11523l15.55664-15.70117h5.67529l-13.65527,13.56934,8.49854,18.00488h-5.30078l-6.82764-15.00879-4.58057,3.71582-2.30469,11.29297h-4.86865Z"/>
    <path class="cls-3" d="m424.62926,179.51494c-2.09375,0-3.83643-.50391-5.22852-1.5127-1.39307-1.00781-2.08887-2.74121-2.08887-5.19922,0-.5957.03809-1.24316.11523-1.94531.07666-.7002.20166-1.42578.37451-2.1748l3.71631-17.65918h-4.86865l.46094-2.21875,5.24316-2.0166,3.45703-6.68359h2.85205l-1.58447,7.25977h8.12402l-.74902,3.65918h-8.09521l-3.74512,17.7168c-.13477.53809-.25488,1.11426-.36035,1.72852-.10547.61523-.1582,1.20117-.1582,1.75781,0,.95996.24951,1.76172.74902,2.40527.49902.64355,1.33447.96484,2.50635.96484.72949,0,1.42627-.06641,2.08838-.20117.66309-.13477,1.36865-.32617,2.11768-.57617v3.6875c-.48047.23047-1.20557.45605-2.17529.67676s-1.88672.33105-2.75098.33105Z"/>
    <path class="cls-3" d="m447.96422,179.3997c-2.41992,0-4.50391-.49414-6.25146-1.4834-1.74805-.98926-3.0874-2.3916-4.01855-4.20605-.93213-1.81543-1.39746-3.96094-1.39746-6.43848,0-1.99707.2207-3.9707.6626-5.9209.44141-1.94824,1.09473-3.79199,1.95898-5.53125.86426-1.7373,1.93457-3.27344,3.2124-4.60938,1.27686-1.33398,2.75098-2.38086,4.42188-3.13965s3.53369-1.1377,5.58887-1.1377c2.45801,0,4.55615.49414,6.29492,1.4834,1.73779.98926,3.07227,2.39648,4.00391,4.2207s1.39746,3.98535,1.39746,6.48145c0,1.95898-.21582,3.90918-.64844,5.84863-.43164,1.93945-1.07568,3.77832-1.92969,5.5166-.85498,1.73828-1.9209,3.27441-3.19824,4.60938s-2.75586,2.38672-4.43652,3.1543c-1.68066.76855-3.56738,1.15234-5.66064,1.15234Zm.28809-3.97559c1.19043,0,2.32373-.24902,3.39941-.74902,1.0752-.49902,2.05469-1.22461,2.93848-2.1748.8833-.95117,1.64648-2.1123,2.29053-3.48633.64307-1.37207,1.14209-2.93262,1.49805-4.68066.35498-1.74805.53271-3.66797.53271-5.76172,0-1.24805-.22119-2.45801-.6626-3.62988-.44189-1.17188-1.15234-2.13672-2.13184-2.89551s-2.28564-1.1377-3.91797-1.1377c-1.34473,0-2.58838.27832-3.73047.83496-1.14307.55762-2.16602,1.34473-3.06836,2.3623-.90283,1.01855-1.6665,2.21875-2.29004,3.60156-.62451,1.38281-1.10498,2.90039-1.44043,4.55176-.33643,1.65137-.50439,3.38965-.50439,5.21387,0,2.5166.61426,4.4707,1.84375,5.8623,1.229,1.39355,2.97656,2.08887,5.24316,2.08887Z"/>
    <path class="cls-3" d="m471.3568,178.93877l-1.38281-31.57422h4.69531l.54785,17.42969c.05762,2.09375.0625,3.97559.01465,5.64648-.04883,1.6709-.11133,3.06348-.1875,4.17676h.20117c.30762-.80664.67773-1.74316,1.10938-2.80859.43262-1.06641.88379-2.13672,1.35449-3.21191.46973-1.0752.90723-2.0459,1.31055-2.91016l8.6709-18.32227h5.12891l1.15234,17.4873c.03809,1.44043.07617,3.06738.11523,4.88281.03809,1.81445.03809,3.44238,0,4.88281h.20117c.32617-.95996.70996-2.03125,1.15234-3.21191.44141-1.18164.93652-2.43457,1.4834-3.75977.54785-1.3252,1.11914-2.67871,1.71387-4.06152l7.31885-16.21973h5.07031l-14.66455,31.57422h-5.7041l-1.06543-17.74609c-.05859-.99805-.0918-1.96777-.10156-2.90918s-.00977-1.91113,0-2.91016c.00977-.99805.01465-2.08301.01465-3.25488h-.23047c-.3457.94141-.68652,1.82422-1.02246,2.65039-.33691.82617-.71094,1.69922-1.12402,2.62109s-.91699,2.0166-1.5127,3.28418l-8.64258,18.26465h-5.61719Z"/>
    <path class="cls-3" d="m510.30455,178.93877l6.77148-31.71777h4.23438l-.75,6.07812h.05859c.73047-.99805,1.60742-2.01172,2.63672-3.03906,1.02734-1.02734,2.22656-1.8916,3.59961-2.59277s2.93359-1.05176,4.68164-1.05176c1.68945,0,3.14062.3125,4.34961.93652,1.21094.62402,2.14258,1.52637,2.79492,2.70801.65234,1.18066.98047,2.60742.98047,4.27832,0,.88379-.06836,1.77637-.20312,2.67871-.13281.90332-.27734,1.70996-.43164,2.41992l-4.20508,19.30176h-5.09961l4.26367-19.93555c.17188-.86426.3125-1.60352.41797-2.21777s.1582-1.19043.1582-1.72852c0-1.34473-.36523-2.3623-1.0957-3.05371-.72852-.69141-1.80469-1.03711-3.22656-1.03711-1.40039,0-2.88086.48047-4.43555,1.44043-1.55664.95996-2.99609,2.47266-4.32227,4.53711-1.32422,2.06445-2.35156,4.75879-3.08203,8.08105l-2.9668,13.91406h-5.12891Z"/>
  </g>
  <g>
    <path class="cls-4" d="m286.83336,85.50713v28.91016c0,2.04541.22559,3.57959.67822,4.60205.45166,1.02295,1.30713,1.92773,2.56641,2.71387h-12.27197c1.33691-.70801,2.18311-1.86768,2.53711-3.48096.15674-.70801.23584-2.20264.23584-4.48389v-25.0752c0-2.28076-.0791-3.77588-.23584-4.48389-.354-1.6123-1.2002-2.77295-2.53711-3.48096h5.95898c.354,0,1.12109-.01953,2.30127-.05908h6.66699c3.18604,0,5.79102.47217,7.81738,1.41602,2.02539.94385,3.6377,2.27148,4.83789,3.98242,1.19971,1.71094,1.7998,3.55029,1.7998,5.5166,0,3.22559-1.34814,5.98828-4.0415,8.28955-2.69482,2.30078-5.92969,3.45117-9.70557,3.45117-1.61328,0-3.10791-.29492-4.48389-.88477,3.38232-.43262,5.97803-1.37646,7.7876-2.83203,2.32031-1.88818,3.48096-4.16895,3.48096-6.84424,0-2.39844-.80664-4.28662-2.41895-5.66357-1.61328-1.37646-3.81543-2.06543-6.60791-2.06543-1.37744,0-2.83203.15771-4.36572.47217Z"/>
    <path class="cls-4" d="m326.8358,114.18144v-8.02441c-1.41602.66943-4.07129,1.45605-7.96533,2.36035-2.98975.70801-4.48389,2.30078-4.48389,4.77881,0,1.57373.58984,2.8125,1.77002,3.7168,1.18018.90527,2.79248,1.35742,4.83789,1.35742,1.33691,0,2.89111-.2749,4.66113-.82617l-3.6582,4.66113c-1.14111.23584-2.28125.354-3.42188.354-3.10742,0-5.56641-.80664-7.375-2.41895-2.12402-1.88818-3.18604-4.18945-3.18604-6.90332,0-2.87061,1.15967-4.95605,3.48096-6.25391,1.49463-.82617,4.22803-1.63184,8.20117-2.41895,2.71387-.51074,4.5625-1.06201,5.5459-1.65186.98291-.59033,1.4751-1.43555,1.4751-2.53711,0-1.21875-.55127-2.19238-1.65186-2.92041-1.10205-.72754-2.55762-1.0918-4.36621-1.0918-2.16357,0-4.97607.82617-8.43701,2.47803l4.12988-6.25391c1.37646-.2749,2.81201-.41309,4.30713-.41309,5.15234,0,8.61377,1.33789,10.38379,4.01221.59033.86572.96338,1.74023,1.12109,2.62549.15674.88477.23633,2.54688.23633,4.98535v8.02393c0,1.77002.08838,2.9502.26514,3.54004.17725.58984.58008,1.14111,1.20947,1.65186.82617.66943,2.104,1.02344,3.83496,1.06201l-2.71387,4.07129c-2.71387-.19727-4.63135-.62891-5.75244-1.29785-1.12109-.66846-1.83936-1.63184-2.15332-2.89111-.19727-.70801-.29492-1.96631-.29492-3.77588Z"/>
    <path class="cls-4" d="m348.6068,97.13017v13.21582c0,2.87207.354,4.7793,1.06201,5.72314,1.14062,1.49512,2.75293,2.24219,4.83838,2.24219.82568,0,1.69043-.17725,2.5957-.53125l-3.24512,4.42529c-.74756.23584-1.49512.354-2.2417.354-2.51758,0-4.6416-.9043-6.37207-2.71436-1.06201-1.14014-1.75049-2.53662-2.06494-4.18896-.11816-.82568-.17725-2.41895-.17725-4.77881v-13.74707h-4.24805v-2.24219c2.12402-.354,3.83545-1.2583,5.1333-2.71387,1.53369-1.69043,2.30078-4.24805,2.30078-7.66992v-.76709h2.41895v9.26318h4.83838c1.80859,0,3.02832-.11816,3.65771-.354v5.60498c-.86572-.74658-2.16357-1.12109-3.89404-1.12109h-4.60205Z"/>
    <path class="cls-4" d="m370.43639,121.7332h-10.3252c1.10059-.86475,1.77002-1.60205,2.00586-2.2124.23633-.60938.354-1.91748.354-3.92383v-16.46094c0-2.00586-.11768-3.31299-.354-3.92334-.23584-.60938-.90527-1.34668-2.00586-2.2124h4.30713c1.69043,0,2.91016-.39258,3.65771-1.18018v5.1333c1.69092-3.18604,4.16895-4.7793,7.43408-4.7793.55029,0,1.27783.07959,2.18311.23584v5.72314c-.70801-.66846-1.69189-1.00293-2.9502-1.00293-2.32129,0-4.0708.78711-5.25098,2.35986-.94385,1.25928-1.41602,3.20654-1.41602,5.84131v10.26562c0,2.00635.11816,3.31445.354,3.92383.23633.61035.9043,1.34766,2.00635,2.2124Z"/>
    <path class="cls-4" d="m389.3153,91.82012v23.77686c0,2.00635.11816,3.31445.354,3.92383.23633.61035.9043,1.34766,2.00635,2.2124h-10.3252c1.10059-.86475,1.77002-1.60205,2.00586-2.2124.23633-.60938.354-1.91748.354-3.92383v-16.46094c0-2.00586-.11768-3.31299-.354-3.92334-.23584-.60938-.90527-1.34668-2.00586-2.2124h4.30713c1.69043,0,2.91016-.39258,3.65771-1.18018Zm-2.83203-10.38379c1.02246,0,1.91748.3833,2.68457,1.15039s1.15039,1.68164,1.15039,2.74365-.3833,1.97656-1.15039,2.74316c-.76709.76709-1.68164,1.15088-2.74365,1.15088-1.10156,0-2.02588-.38379-2.77295-1.15088-.74756-.7666-1.12061-1.70068-1.12061-2.80225,0-1.06201.3833-1.96631,1.15039-2.71387.76709-.74707,1.70068-1.12109,2.80225-1.12109Z"/>
    <path class="cls-4" d="m420.6444,92.94121v6.43115c-2.12402-2.00635-4.71973-3.00928-7.7876-3.00928-3.14746,0-5.66406.93506-7.55225,2.80273-1.88818,1.86865-2.83203,4.35645-2.83203,7.46338,0,3.3833,1.20947,6.18555,3.62842,8.40771,2.41895,2.22266,5.45752,3.3335,9.11572,3.3335,3.18604,0,6.35156-1.00342,9.49902-3.00928l-3.6582,6.07715c-1.8877.74658-4.54297,1.12109-7.96484,1.12109-4.95605,0-9.02686-1.36621-12.21289-4.10059-3.18604-2.7334-4.7793-6.24414-4.7793-10.53174,0-4.44434,1.71094-8.22021,5.1333-11.32764,3.22461-2.9502,7.43359-4.42529,12.62598-4.42529,2.28076,0,4.54297.25635,6.78467.76709Z"/>
    <path class="cls-4" d="m434.92223,91.82012v23.77686c0,2.00635.11816,3.31445.354,3.92383.23633.61035.9043,1.34766,2.00635,2.2124h-10.3252c1.10059-.86475,1.77002-1.60205,2.00586-2.2124.23633-.60938.354-1.91748.354-3.92383v-16.46094c0-2.00586-.11768-3.31299-.354-3.92334-.23584-.60938-.90527-1.34668-2.00586-2.2124h4.30713c1.69043,0,2.91016-.39258,3.65771-1.18018Zm-2.83203-10.38379c1.02246,0,1.91748.3833,2.68457,1.15039s1.15039,1.68164,1.15039,2.74365-.3833,1.97656-1.15039,2.74316c-.76709.76709-1.68164,1.15088-2.74365,1.15088-1.10156,0-2.02588-.38379-2.77295-1.15088-.74756-.7666-1.12061-1.70068-1.12061-2.80225,0-1.06201.3833-1.96631,1.15039-2.71387.76709-.74707,1.70068-1.12109,2.80225-1.12109Z"/>
    <path class="cls-4" d="m459.99743,114.18144v-8.02441c-1.41602.66943-4.07129,1.45605-7.96533,2.36035-2.98975.70801-4.48389,2.30078-4.48389,4.77881,0,1.57373.58984,2.8125,1.77002,3.7168,1.18018.90527,2.79248,1.35742,4.83789,1.35742,1.33691,0,2.89111-.2749,4.66113-.82617l-3.6582,4.66113c-1.14111.23584-2.28125.354-3.42188.354-3.10742,0-5.56641-.80664-7.375-2.41895-2.12402-1.88818-3.18604-4.18945-3.18604-6.90332,0-2.87061,1.15967-4.95605,3.48096-6.25391,1.49463-.82617,4.22803-1.63184,8.20117-2.41895,2.71387-.51074,4.5625-1.06201,5.5459-1.65186.98291-.59033,1.4751-1.43555,1.4751-2.53711,0-1.21875-.55127-2.19238-1.65186-2.92041-1.10205-.72754-2.55762-1.0918-4.36621-1.0918-2.16357,0-4.97607.82617-8.43701,2.47803l4.12988-6.25391c1.37646-.2749,2.81201-.41309,4.30713-.41309,5.15234,0,8.61377,1.33789,10.38379,4.01221.59033.86572.96338,1.74023,1.12109,2.62549.15674.88477.23633,2.54688.23633,4.98535v8.02393c0,1.77002.08838,2.9502.26514,3.54004.17725.58984.58008,1.14111,1.20947,1.65186.82617.66943,2.104,1.02344,3.83496,1.06201l-2.71387,4.07129c-2.71387-.19727-4.63135-.62891-5.75244-1.29785-1.12109-.66846-1.83936-1.63184-2.15332-2.89111-.19727-.70801-.29492-1.96631-.29492-3.77588Z"/>
    <path class="cls-4" d="m481.41393,91.82012v5.19189c2.79248-3.22461,5.86035-4.83789,9.2041-4.83789,4.24805,0,7.39453,1.41602,9.43994,4.24805,1.06201,1.49512,1.59277,4.36621,1.59277,8.61426v10.56055c0,2.00635.11816,3.31445.354,3.92383.23633.61035.90479,1.34766,2.00684,2.2124h-10.38477c1.10107-.86475,1.7793-1.6123,2.03564-2.24219.25537-.62842.3833-1.92676.3833-3.89404v-9.91162c0-2.9502-.4126-4.99463-1.23877-6.13623-1.33789-1.84814-3.46143-2.77295-6.37207-2.77295-2.63574,0-4.58252.88525-5.84082,2.65527-.59033.82568-.88525,2.02588-.88525,3.59863v12.56689c0,2.00635.11816,3.31445.354,3.92383.23633.61035.9043,1.34766,2.00635,2.2124h-10.3252c1.10059-.86475,1.77002-1.60205,2.00586-2.2124.23633-.60938.354-1.91748.354-3.92383v-16.46094c0-2.00586-.11768-3.31299-.354-3.92334-.23584-.60938-.90527-1.34668-2.00586-2.2124h4.01221c1.69043,0,2.91016-.39258,3.65771-1.18018Z"/>
    <path class="cls-4" d="m536.81432,80.66924h1.94727c3.73633,0,6.50879.43311,8.31836,1.29785,3.5791,1.73145,5.36914,4.34668,5.36914,7.84717,0,2.83203-1.2002,5.03516-3.59863,6.60791-.66992.43311-1.55469.90527-2.65527,1.41602,1.8877.51172,3.44141,1.10156,4.66113,1.77002,3.69629,2.08545,5.5459,5.15332,5.5459,9.2041,0,2.63574-.87598,5.04443-2.625,7.22754-1.75098,2.18262-4.08203,3.74658-6.99219,4.69043-2.12402.70801-5.30957,1.06201-9.55762,1.06201h-2.8916c-.47168-.03955-.72754-.05908-.7666-.05908h-8.84961c1.33594-.70801,2.18262-1.86768,2.53711-3.48096.15625-.70801.23535-2.20264.23535-4.48389v-25.0752c0-2.28076-.0791-3.77588-.23535-4.48389-.35449-1.6123-1.20117-2.77295-2.53711-3.48096h8.84961c-.04004,0,.31445-.01953,1.0625-.05908h2.18262Zm-3.24512,4.36572v12.21338c.74707.0791,1.53418.11768,2.36035.11768,2.98828,0,5.37793-.59912,7.16797-1.79932,1.79004-1.19922,2.68457-2.80273,2.68457-4.80859,0-1.84814-.72852-3.3335-2.18262-4.45459-1.45605-1.12061-3.40332-1.68115-5.84082-1.68115-1.02344,0-2.41895.13818-4.18945.4126Zm0,16.40234v15.33984c2.04492.43311,3.87402.64893,5.4873.64893,3.30371,0,5.86035-.67822,7.66992-2.03516,1.80859-1.35742,2.71387-3.2749,2.71387-5.75293,0-2.71387-.9541-4.80811-2.86133-6.2832-1.9082-1.4751-4.69043-2.2124-8.34863-2.2124-1.57422,0-3.12695.09863-4.66113.29492Z"/>
    <path class="cls-4" d="m571.80065,121.7332h-10.3252c1.10156-.86475,1.77051-1.60205,2.00684-2.2124.23535-.60938.35352-1.91748.35352-3.92383v-16.46094c0-2.00586-.11816-3.31299-.35352-3.92334-.23633-.60938-.90527-1.34668-2.00684-2.2124h4.30762c1.69043,0,2.91016-.39258,3.6582-1.18018v5.1333c1.69043-3.18604,4.16797-4.7793,7.43359-4.7793.55078,0,1.27734.07959,2.18262.23584v5.72314c-.70801-.66846-1.69141-1.00293-2.94922-1.00293-2.32129,0-4.07129.78711-5.25098,2.35986-.94434,1.25928-1.41602,3.20654-1.41602,5.84131v10.26562c0,2.00635.11719,3.31445.35352,3.92383.23633.61035.9043,1.34766,2.00586,2.2124Z"/>
    <path class="cls-4" d="m597.99694,92.17412c4.44434,0,8.12207,1.33789,11.0332,4.01221,3.22461,2.98975,4.83789,6.64746,4.83789,10.97363,0,4.32764-1.59277,7.97559-4.7793,10.94482-3.18555,2.97021-7.10059,4.45459-11.74121,4.45459-4.6416,0-8.46582-1.42529-11.47559-4.27783-3.00879-2.85107-4.5127-6.49902-4.5127-10.94434,0-4.32617,1.58203-7.93555,4.74902-10.82666,3.16602-2.89062,7.12891-4.33643,11.88867-4.33643Zm-.64941,4.18896c-2.83203,0-5.14258.9541-6.93262,2.86182-1.79004,1.9082-2.68359,4.37598-2.68359,7.4043,0,3.3833.95312,6.18555,2.86133,8.40771,1.90723,2.22266,4.31641,3.3335,7.22754,3.3335,2.87012,0,5.20117-.96338,6.99121-2.89111,1.78906-1.92676,2.68457-4.42529,2.68457-7.49316,0-3.42188-.94434-6.21436-2.83203-8.37793-1.8877-2.1626-4.32715-3.24512-7.31641-3.24512Z"/>
    <path class="cls-4" d="m627.02526,97.13017v13.21582c0,2.87207.35352,4.7793,1.06152,5.72314,1.14062,1.49512,2.75293,2.24219,4.83789,2.24219.82617,0,1.69141-.17725,2.59668-.53125l-3.24512,4.42529c-.74805.23584-1.49512.354-2.24219.354-2.51758,0-4.6416-.9043-6.37207-2.71436-1.06152-1.14014-1.75098-2.53662-2.06543-4.18896-.11719-.82568-.17676-2.41895-.17676-4.77881v-13.74707h-4.24805v-2.24219c2.12402-.354,3.83496-1.2583,5.13281-2.71387,1.53418-1.69043,2.30176-4.24805,2.30176-7.66992v-.76709h2.41895v9.26318h4.83789c1.80859,0,3.02832-.11816,3.6582-.354v5.60498c-.86621-.74658-2.16406-1.12109-3.89453-1.12109h-4.60156Z"/>
    <path class="cls-4" d="m646.25768,79.54814v16.5791c2.00586-2.63477,5.1123-3.95312,9.32227-3.95312,4.08984,0,7.09863,1.35693,9.02637,4.07129,1.02246,1.41602,1.53418,3.56006,1.53418,6.43066v12.9209c0,1.96729.11816,3.26562.35449,3.89404.23535.62988.9043,1.37744,2.00586,2.24219h-10.38379c1.10059-.82617,1.7793-1.55322,2.03516-2.18311.25488-.62842.38379-1.94678.38379-3.95312v-11.03271c0-2.5166-.39355-4.28662-1.18066-5.31006-1.37695-1.77002-3.38281-2.65479-6.01758-2.65479-2.5957,0-4.58301.82568-5.95898,2.47803-.51172.58984-.82617,1.17969-.94434,1.76953-.11816.59033-.17676,1.71143-.17676,3.36328v11.38672c0,2.00635.11816,3.31445.35352,3.92383.23633.61035.92383,1.34766,2.06543,2.2124h-10.38379c1.10059-.86475,1.76953-1.60205,2.00586-2.2124.23633-.60938.35352-1.91748.35352-3.92383v-28.73291c0-2.04443-.1084-3.35254-.32422-3.92334-.2168-.56982-.89453-1.30713-2.03516-2.2124h4.30664c1.69043,0,2.91016-.39307,3.6582-1.18018Z"/>
    <path class="cls-4" d="m702.54284,106.74736h-22.8916c.15723,3.61914,1.33691,6.46045,3.54004,8.52539,2.20215,2.06494,5.19238,3.09766,8.96777,3.09766,3.85449,0,7.31641-1.08154,10.38379-3.24512l-3.3623,5.95898c-2.51758.98242-5.38965,1.4751-8.61426,1.4751-5.19238,0-9.43066-1.41602-12.71484-4.24805s-4.92578-6.49023-4.92578-10.97412c0-4.40479,1.57227-8.14209,4.71973-11.20996,2.67383-2.63477,6.2334-3.95312,10.67871-3.95312,4.12988,0,7.53223,1.28906,10.20703,3.86475,2.6748,2.57666,4.01172,5.85107,4.01172,9.82324v.88525Zm-22.65527-3.89404h16.10645c-.86523-4.64062-3.50098-6.96191-7.90527-6.96191-4.44531,0-7.17871,2.32129-8.20117,6.96191Z"/>
    <path class="cls-4" d="m717.35045,121.7332h-10.3252c1.10156-.86475,1.77051-1.60205,2.00684-2.2124.23535-.60938.35352-1.91748.35352-3.92383v-16.46094c0-2.00586-.11816-3.31299-.35352-3.92334-.23633-.60938-.90527-1.34668-2.00684-2.2124h4.30762c1.69043,0,2.91016-.39258,3.6582-1.18018v5.1333c1.69043-3.18604,4.16797-4.7793,7.43359-4.7793.55078,0,1.27734.07959,2.18262.23584v5.72314c-.70801-.66846-1.69141-1.00293-2.94922-1.00293-2.32129,0-4.07129.78711-5.25098,2.35986-.94434,1.25928-1.41602,3.20654-1.41602,5.84131v10.26562c0,2.00635.11719,3.31445.35352,3.92383.23633.61035.9043,1.34766,2.00586,2.2124Z"/>
    <path class="cls-4" d="m747.97155,93.00029v5.31006c-2.6748-1.6123-5.21191-2.41895-7.61035-2.41895-1.73145,0-3.12695.32422-4.18945.97314-1.06152.64893-1.59277,1.48535-1.59277,2.50781,0,.86572.48145,1.62256,1.44531,2.27148s2.68457,1.36719,5.16211,2.15332c3.81543,1.21973,6.41113,2.43945,7.78809,3.6582,1.6123,1.45557,2.41895,3.28467,2.41895,5.48682,0,2.91113-1.24902,5.2417-3.74609,6.9917-2.49805,1.75049-5.85156,2.62549-10.05957,2.62549-2.6748,0-5.44824-.51172-8.31934-1.53418l-2.12402-6.13623c4.16895,2.55762,8.04395,3.83545,11.62305,3.83545,1.92676,0,3.54004-.42236,4.83887-1.26855,1.29785-.8457,1.94629-1.89746,1.94629-3.15674,0-1.17969-.47168-2.10352-1.41602-2.77295-.74707-.55029-2.73438-1.39551-5.95898-2.53711-3.5791-1.29785-6.03809-2.53662-7.375-3.7168s-2.00586-2.75293-2.00586-4.72021c0-2.5957,1.08105-4.64062,3.24512-6.13574,2.16309-1.49463,5.15234-2.24219,8.96777-2.24219,2.6748,0,4.99512.27588,6.96191.82617Z"/>
    <path class="cls-4" d="m757.52916,92.64629l-1.41602-.354c2.39941-2.55664,3.59961-4.26758,3.59961-5.1333,0-.31396-.23633-.51074-.70801-.58984-2.12402-.39258-3.18652-1.4751-3.18652-3.24512,0-.98242.35449-1.80859,1.0625-2.47803.70801-.66797,1.57227-1.00293,2.5957-1.00293,1.10059,0,2.03613.40381,2.80273,1.20947.7666.80664,1.15039,1.7998,1.15039,2.97949,0,2.00635-1.12109,4.38623-3.36328,7.13916-.86523,1.06201-1.51465,1.59277-1.94629,1.59277-.08008,0-.27637-.03857-.59082-.11768Z"/>
    <path class="cls-4" d="m818.06237,81.31816v7.13916c-3.89355-2.32031-7.65039-3.48096-11.26855-3.48096-4.36621,0-7.94629,1.41602-10.73828,4.24805-2.79297,2.83203-4.18848,6.47021-4.18848,10.91455,0,4.91748,1.51367,9.06689,4.54297,12.44922,3.02832,3.3833,6.76465,5.07422,11.20996,5.07422,3.97168,0,8.49609-1.33691,13.56934-4.01221l-3.12695,7.25684c-2.9502,1.21875-6.17578,1.8291-9.67578,1.8291-7.98535,0-14.10059-2.37939-18.34863-7.13916-3.50195-3.93262-5.25098-8.71143-5.25098-14.33691,0-6.21436,2.09375-11.3667,6.2832-15.45801,4.18848-4.09033,9.44922-6.13574,15.78223-6.13574,2.98926,0,6.72656.55127,11.20996,1.65186Z"/>
    <path class="cls-4" d="m841.1317,92.17412c4.44434,0,8.12207,1.33789,11.0332,4.01221,3.22461,2.98975,4.83789,6.64746,4.83789,10.97363,0,4.32764-1.59277,7.97559-4.7793,10.94482-3.18555,2.97021-7.10059,4.45459-11.74121,4.45459-4.6416,0-8.46582-1.42529-11.47559-4.27783-3.00879-2.85107-4.5127-6.49902-4.5127-10.94434,0-4.32617,1.58203-7.93555,4.74902-10.82666,3.16602-2.89062,7.12891-4.33643,11.88867-4.33643Zm-.64941,4.18896c-2.83203,0-5.14258.9541-6.93262,2.86182-1.79004,1.9082-2.68359,4.37598-2.68359,7.4043,0,3.3833.95312,6.18555,2.86133,8.40771,1.90723,2.22266,4.31641,3.3335,7.22754,3.3335,2.87012,0,5.20117-.96338,6.99121-2.89111,1.78906-1.92676,2.68457-4.42529,2.68457-7.49316,0-3.42188-.94434-6.21436-2.83203-8.37793-1.8877-2.1626-4.32715-3.24512-7.31641-3.24512Z"/>
    <path class="cls-4" d="m871.87096,121.7332h-10.3252c1.10059-.86475,1.76953-1.60205,2.00586-2.2124.23633-.60938.35352-1.91748.35352-3.92383v-28.73291c0-2.04443-.1084-3.35254-.32422-3.92334-.2168-.56982-.89453-1.30713-2.03516-2.2124h4.30664c1.69043,0,2.91016-.39307,3.6582-1.18018v36.04883c0,2.00635.11816,3.31445.35352,3.92383.23633.61035.90527,1.34766,2.00684,2.2124Z"/>
    <path class="cls-4" d="m886.73912,121.7332h-10.3252c1.10059-.86475,1.76953-1.60205,2.00586-2.2124.23633-.60938.35352-1.91748.35352-3.92383v-28.73291c0-2.04443-.1084-3.35254-.32422-3.92334-.2168-.56982-.89453-1.30713-2.03516-2.2124h4.30664c1.69043,0,2.91016-.39307,3.6582-1.18018v36.04883c0,2.00635.11816,3.31445.35352,3.92383.23633.61035.90527,1.34766,2.00684,2.2124Z"/>
    <path class="cls-4" d="m920.89928,106.74736h-22.8916c.15723,3.61914,1.33691,6.46045,3.54004,8.52539,2.20215,2.06494,5.19238,3.09766,8.96777,3.09766,3.85449,0,7.31641-1.08154,10.38379-3.24512l-3.3623,5.95898c-2.51758.98242-5.38965,1.4751-8.61426,1.4751-5.19238,0-9.43066-1.41602-12.71484-4.24805s-4.92578-6.49023-4.92578-10.97412c0-4.40479,1.57227-8.14209,4.71973-11.20996,2.67383-2.63477,6.2334-3.95312,10.67871-3.95312,4.12988,0,7.53223,1.28906,10.20703,3.86475,2.6748,2.57666,4.01172,5.85107,4.01172,9.82324v.88525Zm-22.65527-3.89404h16.10645c-.86523-4.64062-3.50098-6.96191-7.90527-6.96191-4.44531,0-7.17871,2.32129-8.20117,6.96191Z"/>
    <path class="cls-4" d="m959.60241,92.17412l-1.76953,4.01221c-.27539.51172-.88477.76709-1.8291.76709-1.1416,0-3.40234-.29541-6.78516-.88525,3.06836,2.08545,4.60156,4.66113,4.60156,7.729,0,3.85547-2.26172,6.66699-6.78418,8.43701-1.53418.58984-3.69824,1.02344-6.49023,1.29785-1.65234.31543-2.47852.84668-2.47852,1.59326,0,.78711.88574,1.17969,2.65527,1.17969,4.71973.04004,8.20117.38379,10.44336,1.03271s4.08984,1.83936,5.5459,3.56934c1.02246,1.21875,1.53418,2.79248,1.53418,4.72021,0,2.67432-1.0625,4.87646-3.18652,6.60742-3.50098,2.83203-8.12207,4.24805-13.86523,4.24805-4.79883,0-8.83984-.86523-12.12402-2.5957-3.28418-1.73096-4.92676-3.85498-4.92676-6.37158,0-1.53418.52148-2.74365,1.56348-3.62891,1.04199-.88477,2.44922-1.32715,4.21875-1.32715,1.02246,0,2.14355.25537,3.36328.7666-1.84961.354-2.77344,1.31738-2.77344,2.89111,0,2.04492.95312,3.66748,2.86133,4.86768,1.90723,1.19873,4.49316,1.79932,7.75879,1.79932,3.30371,0,5.97852-.61914,8.02441-1.8584,2.04395-1.23877,3.06738-2.88184,3.06738-4.92627,0-4.13037-4.24805-6.11572-12.74414-5.95898l-2.89062.05859c-.35352.04004-.82617.05908-1.41602.05908-1.45605,0-2.56641-.48096-3.33301-1.44531-.76758-.96338-1.15137-1.95654-1.15137-2.97949,0-.59033.30469-1.0918.91504-1.50439.60938-.41309,1.95605-1.03271,4.04102-1.85889-1.8877-.51074-3.38281-1.2583-4.4834-2.2417-2.28223-2.04492-3.42188-4.50342-3.42188-7.375,0-3.06836,1.22852-5.61426,3.6875-7.64062,2.45703-2.02539,5.55469-3.03857,9.29199-3.03857.74707,0,2.49707.09863,5.25098.29492,2.20215.15771,4.20898.23633,6.01855.23633,1.72949,0,4.2666-.17725,7.61035-.53125Zm-19.58789,3.59912c-1.8877,0-3.44238.56055-4.66113,1.68164-1.21973,1.12061-1.8291,2.54688-1.8291,4.27734,0,2.16357.78711,4.02197,2.36035,5.57568,1.57227,1.5542,3.44141,2.33008,5.60547,2.33008,1.84766,0,3.35254-.57959,4.5127-1.74023,1.16016-1.15967,1.74121-2.68457,1.74121-4.57275,0-2.08398-.75781-3.86426-2.27148-5.33936-1.51465-1.4751-3.33398-2.2124-5.45801-2.2124Z"/>
    <path class="cls-4" d="m990.28209,106.74736h-22.8916c.15723,3.61914,1.33691,6.46045,3.54004,8.52539,2.20215,2.06494,5.19238,3.09766,8.96777,3.09766,3.85449,0,7.31641-1.08154,10.38379-3.24512l-3.3623,5.95898c-2.51758.98242-5.38965,1.4751-8.61426,1.4751-5.19238,0-9.43066-1.41602-12.71484-4.24805s-4.92578-6.49023-4.92578-10.97412c0-4.40479,1.57227-8.14209,4.71973-11.20996,2.67383-2.63477,6.2334-3.95312,10.67871-3.95312,4.12988,0,7.53223,1.28906,10.20703,3.86475,2.6748,2.57666,4.01172,5.85107,4.01172,9.82324v.88525Zm-22.65527-3.89404h16.10645c-.86523-4.64062-3.50098-6.96191-7.90527-6.96191-4.44531,0-7.17871,2.32129-8.20117,6.96191Z"/>
  </g>
  <line class="cls-5" x1="244.01495" y1="243.70581" x2="244.01495" y2="18.42138"/>
  <g>
    <path class="cls-1" d="m175.73867,72.06683l-17.39253-21.70888c-23.35931,22.08978-46.97254,4.57027-46.97254,4.57027,0,0-23.61319,17.51951-46.9725-4.57027l-17.39256,21.70888s17.77339,23.86715,7.87109,57.89048c-9.90234,34.02337,7.87105,46.21085,22.59758,48.49598s15.48826-2.28514,33.89639,8.12501c18.40814-10.41014,19.1699-5.83987,33.89639-8.12501,14.72653-2.28514,32.49992-14.47261,22.59758-48.49598-9.9023-34.02334,7.87109-57.89048,7.87109-57.89048Zm-51.89078,66.19057l-12.47425-6.55811-12.47429,6.55811,2.38237-13.89029-10.09188-9.83717,13.94665-2.02656,6.23714-12.63782,6.23711,12.63782,13.94665,2.02656-10.09188,9.83717,2.38237,13.89029Z"/>
    <path class="cls-2" d="m158.34613,50.35795l17.39256,21.7089s-17.77343,23.86713-7.8711,57.89049c9.90234,34.02332-7.87105,46.21083-22.59758,48.49597-14.72651,2.28514-15.48826-2.28514-33.89639,8.12497-18.40814-10.41011-19.16986-5.83984-33.89639-8.12497-14.72653-2.28514-32.49992-14.47265-22.59758-48.49597,9.90232-34.02336-7.87107-57.89049-7.87107-57.89049l17.39253-21.7089c9.03348,8.54253,18.1018,11.16073,25.83088,11.16073,12.25725,0,21.14163-6.59045,21.14163-6.59045,0,0,8.8825,6.59045,21.14163,6.59045,7.72828,0,16.79883-2.61955,25.83088-11.16073m.28681-4.15406l-2.22519,2.10426c-7.29008,6.89386-15.32869,10.38935-23.89252,10.38935-11.11631,0-19.38375-5.97851-19.46598-6.03891l-1.67835-1.23286-1.67809,1.23667c-.07685.05642-8.34615,6.0351-19.46082,6.0351-8.56386,0-16.60244-3.49549-23.89252-10.38935l-2.22519-2.10426-1.9149,2.39012-17.39255,21.7089-1.3627,1.70091,1.30172,1.74801c.03945.0534,4.28022,5.85685,7.28982,15.5706,2.75976,8.90742,5.02343,23.05097.13518,39.84653-4.59928,15.80263-3.89184,28.59064,2.10269,38.0088,6.47047,10.16595,17.04413,13.17468,22.77107,14.06336,4.77724.74129,8.10188.78989,11.03514.83278,5.93296.08679,9.85249.14411,21.90512,6.96008l1.38873.78533,1.38873-.78533c12.05264-6.81597,15.97218-6.87329,21.90514-6.96008,2.93325-.0429,6.25789-.0915,11.03513-.83278,5.72694-.88868,16.3006-3.89741,22.77107-14.06336,5.99453-9.41816,6.70197-22.20617,2.10269-38.0088-4.88825-16.79556-2.62458-30.9391.13518-39.84653,3.0096-9.71376,7.25039-15.51721,7.29287-15.57467l1.2905-1.74619-1.35453-1.69867-17.39255-21.7089-1.9149-2.39012h0Z"/>
    <path class="cls-2" d="m150.43278,28.73362c0-4.73956,2.79298-6.94007,2.79298-6.94007-6.43227-.59247-10.15626,4.99348-10.15626,4.99348-13.87771-5.10432-31.69589-5.24737-31.69589-5.24737,0,0-17.81814.14305-31.69589,5.24737,0,0-3.72396-5.58595-10.15622-4.99348,0,0,2.79298,2.20051,2.79298,6.94007,0,0-4.31639-8.12494-15.14967-8.2096,0,0,11.00254,10.49477,12.01818,21.49735,0,0,16.33461-7.78642,42.19062-7.78642s42.19066,7.78642,42.19066,7.78642c1.01561-11.00258,12.01818-21.49735,12.01818-21.49735-10.83328.08466-15.14967,8.2096-15.14967,8.2096Zm-28.60671,2.8776c-5.40611-.70882-10.45246-.76172-10.45246-.76172,0,0-5.04635.0529-10.45242.76172l-1.43878-6.17838s7.76528-.93269,11.89121-.84635c4.12596-.08634,11.89124.84635,11.89124.84635l-1.43878,6.17838Z"/>
    <circle class="cls-2" cx="111.3821" cy="8.50584" r="8.50584"/>
    <g>
      <circle class="cls-2" cx="101.15535" cy="18.58401" r="5.99685"/>
      <circle class="cls-2" cx="121.60886" cy="18.58401" r="5.99685"/>
    </g>
    <path class="cls-2" d="m74.81121,44.89898s36.56241-13.07614,72.23614,0c0,0-30.21477,9.77537-72.23614,0Z"/>
    <g>
      <path class="cls-1" d="m188.36123,184.9707c-45.30864,35.145-108.66656,35.145-153.97523,0,4.20751-5.4243,8.41503-10.84859,12.62255-16.27289,37.88007,29.38277,90.85008,29.38277,128.73013,0,4.20749,5.4243,8.41504,10.84859,12.62254,16.27289Z"/>
      <path class="cls-2" d="m175.73867,168.69782c4.20754,5.42432,8.41504,10.84863,12.62257,16.27292-22.65436,17.57249-49.82102,26.35875-76.98766,26.35875s-54.3333-8.78626-76.98762-26.35875c4.20752-5.42428,8.41504-10.8486,12.62257-16.27292,18.94003,14.6914,41.65255,22.03708,64.36507,22.03708s45.42504-7.34569,64.36507-22.03708m.50004-3.95828l-2.22913,1.72911c-17.82833,13.82908-40.07288,21.44506-62.63597,21.44506s-44.80761-7.61599-62.63597-21.44506l-2.22913-1.72911-1.72914,2.22917-12.62256,16.27288-1.72911,2.22919,2.22918,1.72912c11.37971,8.82699,24.03987,15.62763,37.6288,20.213,13.24963,4.47084,27.07358,6.73775,41.08792,6.73775s27.83827-2.26691,41.08794-6.73775c13.58893-4.58537,26.24911-11.38601,37.62881-20.213l2.22919-1.72912-1.72912-2.22919-12.62254-16.27288-1.72914-2.22917h0Z"/>
    </g>
    <g>
      <path class="cls-1" d="m189.60372,149.60554c-1.05691-.47264-2.20728-.76832-3.41712-.85745-.26356-.02378-.5197-.03842-.76149-.03842-5.66403,0-10.25564,4.59162-10.25564,10.25564s4.59162,10.25564,10.25564,10.25564c2.96079,0,5.62062-1.26213,7.49264-3.26879l.00369.0085s2.50605,7.88166-.78588,17.25096c0,0,7.09033-3.54514,7.09033-17.72575,0-9.27481-5.09328-14.05636-9.62218-15.88034Z"/>
      <path class="cls-2" d="m185.42512,148.70967c.24179,0,.4979.01465.76148.03843,1.20984.08913,2.36021.3848,3.4171.85744,4.52892,1.824,9.62217,6.60553,9.62217,15.88035,0,14.18061-7.09031,17.72575-7.09031,17.72575,3.29194-9.3693.78588-17.25096.78588-17.25096l-.0037-.00851c-1.872,2.00667-4.53187,3.2688-7.49262,3.2688-5.66403,0-10.25565-4.59162-10.25565-10.25565s4.59162-10.25564,10.25565-10.25564m0-2.81362c-7.20643,0-13.06927,5.86284-13.06927,13.06925s5.86284,13.06927,13.06927,13.06927c1.90753,0,3.78128-.42576,5.48871-1.21952.24165,2.86422.13852,6.99171-1.43279,11.4639l-2.30408,6.55769,6.21689-3.10843c.35301-.1765,8.64566-4.50377,8.64566-20.24233,0-12.82445-8.6091-17.35986-11.33574-18.47043-1.35351-.5986-2.79548-.95909-4.28692-1.07163-.36236-.03214-.68696-.04778-.99173-.04778h0Z"/>
    </g>
    <g>
      <path class="cls-1" d="m33.14345,149.60554c1.05691-.47264,2.20728-.76832,3.41712-.85745.26356-.02378.5197-.03842.76149-.03842,5.66403,0,10.25564,4.59162,10.25564,10.25564,0,5.66403-4.59162,10.25564-10.25564,10.25564-2.96079,0-5.62062-1.26213-7.49264-3.26879l-.00369.0085s-2.50605,7.88166.78588,17.25096c0,0-7.09033-3.54514-7.09033-17.72575,0-9.27481,5.09328-14.05636,9.62218-15.88034Z"/>
      <path class="cls-2" d="m37.32206,148.70967c5.66403,0,10.25565,4.59162,10.25565,10.25564s-4.59162,10.25565-10.25565,10.25565c-2.96078,0-5.62062-1.26213-7.49263-3.2688l-.0037.00851s-2.50605,7.88166.78588,17.25096c0,0-7.09032-3.54514-7.09032-17.72575,0-9.27482,5.09328-14.05636,9.62217-15.88035,1.05691-.47263,2.20728-.7683,3.41712-.85744.26356-.02378.51969-.03843.76148-.03843m0-2.81362c-.3048,0-.62947.01564-.99183.0478-1.49131.11252-2.93314.47296-4.28657,1.07149-2.72609,1.11024-11.336,5.64534-11.336,18.47055,0,15.73856,8.29265,20.06583,8.64567,20.24233l6.21688,3.10841-2.30407-6.55767c-1.57096-4.47119-1.67437-8.598-1.43243-11.46373,1.70727.79357,3.58106,1.21935,5.48835,1.21935,7.20641,0,13.06927-5.86286,13.06927-13.06927s-5.86286-13.06925-13.06927-13.06925h0Z"/>
    </g>
    <g>
      <path class="cls-1" d="m219.84508,170.50051c-10.8263-1.27367-18.46839-9.93471-18.46839-9.93471,3.43893,25.3463-24.70944,35.66311-37.57368,42.54102-8.70185,4.65249-15.26449,9.07159-28.75025,21.17748-14.81377,13.29803-23.70535,12.57513-23.70535,12.57513v.02337c-.7098.03326-9.46059.16222-23.65283-12.5779-13.48577-12.10589-20.0484-16.52499-28.7503-21.17748-12.8642-6.87787-41.01257-17.19472-37.57364-42.54102,0,0-7.64209,8.66104-18.46843,9.93471,0,0-2.92944,24.58212,28.27578,41.39471,31.15547,16.78585,41.91945,28.00326,52.51819,37.06419,4.83846,4.13643,15.66856,10.18948,27.70375,10.18948v-.0222c12.01403-.01766,22.81981-6.0575,27.65119-10.18789,10.59874-9.06092,21.36272-20.27838,52.51823-37.06419,31.20522-16.81263,28.27574-41.39471,28.27574-41.39471Z"/>
      <path class="cls-2" d="m201.37668,160.56579s7.64211,8.66104,18.46841,9.93472c0,0,2.92948,24.58208-28.27574,41.39472-31.1555,16.78579-41.91952,28.00325-52.51821,37.06417-4.83142,4.13038-15.63719,10.17024-27.6512,10.18788v.0222c-12.03521,0-22.86531-6.05305-27.70379-10.18949-10.59872-9.06089-21.36271-20.27834-52.51818-37.0642C-.02724,195.10324,2.90219,170.5211,2.90219,170.5211c10.82636-1.27367,18.46842-9.9347,18.46842-9.9347-3.43891,25.34629,24.70948,35.66316,37.57368,42.54101,8.7019,4.65249,15.2645,9.07159,28.75025,21.17749,13.36158,11.99441,21.89985,12.58211,23.44591,12.58211.09612,0,.16539-.00228.20693-.00421v-.02337s.08542.00696.2537.00696c1.5474,0,10.0909-.58839,23.4517-12.58208,13.48575-12.10591,20.04839-16.525,28.75022-21.17751,12.86426-6.8779,41.01264-17.1947,37.57368-42.54101m-4.06127-8.88072l1.25654,9.26125c1.20467,8.87887-1.72926,16.49806-8.96951,23.29296-6.43299,6.03736-15.0068,10.29259-21.89601,13.71171-1.88711.93658-3.6696,1.82124-5.23795,2.65978-8.84769,4.73043-15.4898,9.16431-29.30647,21.56728-12.83882,11.52518-20.70612,11.85792-21.56094,11.85792-.01852,0-.03431-.00014-.04739-.00036l-2.96054-.34797c-3.39656-.80837-9.96876-3.37479-19.00785-11.489-13.81678-12.40307-20.45885-16.83691-29.30651-21.56728-1.56831-.83852-3.35073-1.72313-5.23781-2.65971-6.88921-3.41909-15.46302-7.6743-21.89606-13.71166-7.24027-6.79497-10.17427-14.41419-8.9696-23.29308l1.25653-9.26129-6.18359,7.00812c-.06607.0742-7.10211,7.86991-16.67679,8.99634l-2.21582.26067-.26401,2.21543c-.03326.27934-.77639,6.94254,2.60434,15.74259,3.0623,7.9713,10.25658,19.38274,27.13949,28.47877,26.52361,14.29035,38.14836,24.53605,47.48902,32.76863,1.56211,1.37684,3.03764,2.67734,4.53243,3.95523,4.72188,4.03674,16.25776,10.86847,29.543,10.86847h2.83039v-.12787c12.05478-.87842,22.28768-7.0233,26.66002-10.7612,1.49472-1.27785,2.97015-2.57825,4.53219-3.95502,9.34066-8.23264,20.96544-18.47841,47.48928-32.7688,16.88291-9.09609,24.07714-20.50756,27.13949-28.47881,3.38071-8.80008,2.63756-15.46324,2.60433-15.74259l-.26403-2.21543-2.21582-.26069c-9.63951-1.13404-16.60751-8.91784-16.67675-8.99634l-6.18363-7.00807h0Z"/>
    </g>
    <g>
      <path class="cls-2" d="m19.62518,179.10353l-7.8622,3.58253c-.55629.25371-.94551.50519-1.16744.7549-.22216.24971-.36212.5945-.41988,1.03437l-1.5209-3.33727c.35834.27548.77844.36212,1.2612.25859.21194-.04532.62804-.20883,1.24853-.49142l6.81916-3.10756c.62027-.28259,1.01704-.48964,1.19033-.61982.39455-.29592.60538-.67003.63226-1.12146l.73846,1.62087c.04377.09597.14418.30214.30103.61849.14129.31013.3339.73224.57761,1.26719l.2486.54562c.39478.86642.58939,1.63331.58361,2.30156-.00555.66781-.16684,1.27075-.48342,1.80926-.3168.53807-.74245.92907-1.27719,1.173-.8773.39944-1.79571.37545-2.75521-.07198-.95973-.44743-1.6733-1.18455-2.14139-2.21181-.19994-.43854-.3048-.88153-.31502-1.32895.53674.86642,1.11524,1.45514,1.73528,1.76705.8011.39722,1.56511.4301,2.29268.09864.65226-.29725,1.0657-.7509,1.24053-1.36006.17439-.60916.08886-1.29341-.25726-2.05275-.17062-.37456-.39389-.75045-.66936-1.12901Z"/>
      <path class="cls-2" d="m23.67469,195.71078l-3.30417-3.35371-2.76454,1.23876c-.36701.16395-.64271.33635-.82687.51763-.20927.20661-.24948.5594-.11997,1.05881l-2.40087-2.43664c.48964.11197.90907.13552,1.25875.07198.34946-.06398.92885-.26348,1.7375-.59805l8.12968-3.40614c.35034-.14707.5965-.29058.7389-.43099.21772-.21416.26148-.52163.13152-.92151l2.07896,2.11006-4.19836,9.63192c-.32146.74556-.51896,1.31962-.5925,1.72217-.07376.40255-.04976.84154.07131,1.31607l-2.71011-2.75077c.50586.12841.83865.11463.99772-.04221.10042-.09908.27303-.41766.5183-.95617l1.25475-2.77121Zm.52007-1.18055l2.14228-4.75953-4.80307,2.05897,2.6608,2.70056Z"/>
      <path class="cls-2" d="m40.86734,198.21807l-1.65308,1.57599c.0231-.35679-.08175-.66026-.31458-.9113-.14085-.15329-.41233-.3519-.81466-.59494-.06043-.03688-.18817-.10353-.38345-.20083-.19528-.09775-.44876-.24038-.76067-.42877l-.25637-.15507-4.46895,7.39433c-.31613.52296-.49364.94106-.53163,1.25431-.03866.31369.04332.68914.24571,1.12723l-3.15377-1.90612c.4512.02577.84687-.13996,1.18699-.49808.15551-.16662.40677-.53674.75334-1.11035l4.36875-7.22816c-.32391-.23727-.74245-.51052-1.25542-.82065-.48297-.29192-.86331-.48031-1.14123-.56606-.36079-.10797-.79111-.13463-1.29096-.07953l1.72862-1.53067c.16862.19817.41899.39722.7509.59805l5.99096,3.62074c.13063.07909.3379.19061.62182.33457.05621.02044.18217.0622.37767.1253Z"/>
      <path class="cls-2" d="m44.95439,201.90102l-4.2539,7.4592c-.3379.59228-.53874.99172-.60272,1.19877-.14685.47142-.09908.89752.14329,1.27919l-3.06335-1.74706c.45187.01422.84331-.16173,1.17411-.52785.14529-.16084.38722-.53674.72513-1.12901l3.71227-6.5097c.33768-.59228.53851-.99216.60272-1.19921.14685-.47098.09886-.89752-.14329-1.27919l2.34333,1.33651c.16329.09331.40633.22482.72868.39544.32213.17017.56517.30169.72868.395,1.02082.5825,1.69796,1.24587,2.0312,1.99054.41766.92862.385,1.81681-.09842,2.66413-.35523.62293-.9264,1.05481-1.71351,1.29607s-1.61887.24082-2.49529-.00222c.27881,2.31045.56295,4.04907.85176,5.2154.28903,1.16633.65915,2.10118,1.11013,2.80498-.79066-.36967-1.28808-.61271-1.49202-.72913-.48009-.2737-.8231-.59805-1.02882-.97261-.20616-.37412-.397-1.0246-.5725-1.95011-.3399-1.77727-.52652-3.70339-.56028-5.78013,1.97166.71891,3.30994.46031,4.01463-.77533.3028-.53052.36745-1.06547.19439-1.60443-.17328-.53807-.55606-.97661-1.14812-1.31429-.32702-.18661-.7229-.35812-1.18811-.51496Z"/>
      <path class="cls-2" d="m50.7905,215.28608l3.93976-6.37418c.35834-.57983.57317-.97261.64448-1.177.16351-.46564.13063-.89352-.09797-1.28363l2.99981,1.85414c-.4512-.03021-.84865.13196-1.19188.48608-.15129.15507-.40611.52296-.76445,1.1028l-3.93976,6.37462c-.35856.57983-.57339.97217-.6447,1.177-.16351.46564-.13063.89352.09819,1.28363l-2.99981-1.85414c.45098.03021.84842-.13196,1.19188-.48653.15107-.15507.40588-.52252.76445-1.1028Z"/>
      <path class="cls-2" d="m69.67111,216.0512l-1.19766,1.76572c-.57384-1.22721-1.30829-2.14472-2.20315-2.75166-1.07991-.73224-2.20293-.98239-3.36859-.75045-1.16589.23193-2.12139.89752-2.86696,1.99676-.82488,1.21654-1.14656,2.49662-.96461,3.84113.1815,1.34495.82199,2.38998,1.92145,3.13555.98239.66648,2.32556,1.0948,4.02929,1.28408l-1.99076,1.2703c-.93396-.19328-1.83414-.58339-2.70012-1.17078-1.97499-1.33962-3.08845-2.95382-3.3406-4.84351-.20639-1.56.16262-3.03558,1.10613-4.42718,1.04237-1.53689,2.42486-2.45974,4.14726-2.76899,1.72217-.30924,3.36637.06754,4.93281,1.1299.73912.50119,1.57111,1.26453,2.49551,2.28912Z"/>
      <path class="cls-2" d="m68.06224,226.93431l4.51582-5.98007c.41077-.54429.66114-.91485.75134-1.11213.20594-.44832.21305-.87753.02177-1.28719l2.81431,2.12517c-.44654-.07198-.85731.05243-1.23209.37323-.16506.1404-.45298.48297-.86375,1.02682l-4.51582,5.98051c-.41077.54429-.66137.91485-.75112,1.11168-.20616.44876-.21349.87753-.02199,1.28719l-2.81409-2.12473c.44632.07154.85687-.05243,1.23187-.37367.16484-.1404.45298-.48253.86375-1.02682Z"/>
      <path class="cls-2" d="m80.70418,234.22778l-3.59653-3.0378-2.63991,1.4858c-.35079.19639-.60938.39322-.77622.59094-.18972.22438-.1975.57939-.02288,1.06547l-2.61303-2.20781c.49764.06665.91752.05243,1.26008-.0431.3419-.09553.90063-.34701,1.67552-.75445l7.78511-4.13349c.33524-.17817.56717-.34346.69625-.4963.19728-.23327.21283-.5434.04688-.92996l2.26291,1.91145-3.30195,9.97493c-.25215.77178-.39655,1.36139-.43299,1.76927-.03666.40744.0271.84243.19106,1.30407l-2.94982-2.49218c.51563.08175.84554.03732.98972-.1333.09109-.10752.23393-.44076.42899-.99927l.99683-2.87429Zm.41011-1.22321l1.69907-4.93503-4.59513,2.48862,2.89606,2.44641Z"/>
      <path class="cls-2" d="m90.95525,236.90524l-4.34498,6.0405c-.35701.4963-.56806.90552-.63337,1.22765s-.01733.69314.14396,1.11346l-2.69101-1.93545c.4752.0231.84954-.04399,1.12279-.20261.27303-.15818.59161-.49008.9555-.99572l4.60224-6.39862c.35679-.49586.56806-.90552.63337-1.22765.06531-.32257.01733-.69358-.14396-1.11346l2.20448,1.58532c-.02222.07109-.03688.34301-.04377.81577l.46942,11.15415,4.25234-5.91164c.35679-.4963.56606-.9033.62804-1.22054.06176-.31769.01089-.69447-.15307-1.13079l2.70545,1.94567c-.47564-.02355-.84998.04399-1.12301.20216-.27326.15862-.59161.49053-.95528.99616l-6.22911,8.66019c-.56339-.76734-.87419-1.79415-.93262-3.08179l-.46742-10.52277Z"/>
      <path class="cls-2" d="m126.41557,237.50285l.47053-.34212c.9033-.6567,1.64975-1.03926,2.23936-1.14812,1.16944-.21016,2.06163.10752,2.67657.95351.49764.68469.5945,1.42848.29103,2.23003-.08575.22216-.21638.49186-.39278.80866.54607-.20794,1.02548-.33813,1.43781-.391,1.25964-.14529,2.24603.27148,2.95782,1.25075.46298.63715.67447,1.37339.63493,2.20826-.03954.83532-.32835,1.62265-.86597,2.36244-.38878.54429-1.09702,1.18988-2.12384,1.93634l-.35679.25904c-.10441.07598-.2186.15907-.34212.24882-.12085.07331-.18661.11375-.19594.12041l-2.13939,1.55511c.19905-.40611.1995-.83532.00178-1.28719-.08664-.19905-.33013-.57406-.7309-1.12546l-4.40585-6.06182c-.40077-.5514-.68247-.89885-.84465-1.04281-.36923-.32746-.77756-.45942-1.22498-.39544l2.13939-1.55511c-.00977.00711.07242-.05998.24615-.20083.18084-.13107.35679-.25904.52785-.38345Zm-.01733,1.62531l2.14605,2.95249c.19417-.11197.39144-.24082.59094-.38611.7229-.52518,1.19521-1.08991,1.41693-1.69463.22171-.60427.1564-1.14901-.19594-1.6342-.3248-.44654-.76156-.67758-1.31029-.69314-.54873-.01511-1.1179.1915-1.70751.61982-.24748.17995-.56073.45854-.94018.83576Zm2.88184,3.96509l2.69523,3.70872c.5705-.25459,1.05081-.52385,1.44092-.80732.79844-.58072,1.29741-1.19388,1.49646-1.83992.19861-.64559.08042-1.26853-.35501-1.86747-.47675-.65626-1.07525-.99483-1.79549-1.01615-.72068-.02133-1.52268.28925-2.40687.93218-.38078.27637-.7389.57317-1.07525.88997Z"/>
      <path class="cls-2" d="m136.10924,230.95094l5.59529,6.51369c.44432.51719.75312.84065.92685.97083.39411.29636.81177.395,1.25298.29503l-2.67524,2.29757c.16529-.42077.13152-.8482-.10264-1.28319-.10219-.19106-.37545-.54518-.81977-1.06236l-4.88305-5.68415c-.44387-.51719-.75312-.84065-.9264-.97083-.39455-.29636-.81221-.395-1.25298-.29503l2.04608-1.75772c.14263-.12263.34834-.30702.61716-.55362.26881-.24615.47453-.43054.61716-.55318.89175-.766,1.74439-1.18055,2.55794-1.24409,1.01438-.08131,1.83992.24793,2.47574.98816.46698.54384.68203,1.22676.6447,2.04919s-.31769,1.60576-.84109,2.34955c2.27002.51408,4.00286.83087,5.19852.95084s2.20026.08531,3.01469-.10264c-.61405.62027-1.00993,1.00682-1.18811,1.16011-.41944.36034-.83976.57406-1.26142.64204-.4221.06842-1.0988.02932-2.02964-.11641-1.78793-.27725-3.66473-.74868-5.63172-1.41471,1.33962-1.61554,1.54578-2.96315.61893-4.04196-.39811-.46342-.88019-.70424-1.44536-.72246-.56562-.01777-1.10724.1955-1.62398.63982-.2857.24526-.58028.56028-.88464.94551Z"/>
      <path class="cls-2" d="m148.43372,218.8655c1.52312-1.14278,3.16265-1.61154,4.91771-1.40715,1.75461.20483,3.17554,1.03126,4.26145,2.47929,1.08636,1.44803,1.47691,3.07645,1.17255,4.88394-.30436,1.80837-1.22321,3.28706-2.7561,4.43651-1.54223,1.15656-3.20708,1.6302-4.99502,1.42093s-3.23197-1.04726-4.33254-2.51439c-.5003-.66781-.8522-1.4547-1.05437-2.3611-.20216-.90596-.21949-1.76705-.05287-2.58326.36923-1.76039,1.31562-3.21242,2.83919-4.35476Zm.70513,1.14589c-1.10991.83221-1.74795,1.8768-1.91501,3.13333-.16706,1.25697.16928,2.44464,1.0086,3.56343.92418,1.23209,2.12073,1.99499,3.59009,2.28868,1.22454.2426,2.3731-.03866,3.44524-.84287,1.10946-.83176,1.74084-1.87102,1.89368-3.11733.15285-1.24587-.20794-2.45174-1.08236-3.61808-.86064-1.14723-1.93234-1.87102-3.21641-2.17227-1.37294-.32213-2.61436-.06709-3.72383.76511Z"/>
      <path class="cls-2" d="m164.46026,208.09702l.70247,2.17316c-.31147-.17551-.63049-.21283-.9575-.11197-.1995.06043-.49586.2186-.88952.47586-.05909.03821-.17506.12441-.34746.25815s-.41144.29991-.71624.49897l-.25104.16395,4.72221,7.23527c.33413.51185.63404.85309.89974,1.02326.2657.17106.63982.25993,1.1219.26792l-3.08579,2.01409c.21905-.39544.24126-.82376.0662-1.28541-.08264-.21283-.30702-.59983-.67314-1.161l-4.61646-7.07265c-.35412.18883-.782.44743-1.28408.77489-.47231.30836-.80732.56917-1.00505.78244-.25371.27814-.46476.65448-.63226,1.12857l-.62871-2.22159c.25193-.06576.53985-.20483.86464-.41721l5.86188-3.82602c.12796-.08309.31858-.22171.57139-.41499.0431-.04177.13507-.13685.27681-.2857Z"/>
      <path class="cls-2" d="m178.51979,207.27148l-5.7859,3.37948,1.77905,3.04535c.3439.58872.58917.96239.73668,1.12146.33457.36301.72735.53496,1.17922.51585l-3.04491,1.7786c.23815-.38433.2817-.81088.12974-1.28052-.0662-.20661-.27103-.60383-.61494-1.19299l-3.77936-6.4706c-.3439-.58828-.59005-.96239-.73712-1.12146-.33413-.36256-.72779-.53451-1.17922-.51585l3.04491-1.7786c-.2386.38433-.2817.81132-.12974,1.28052.06576.20661.27103.60427.61494,1.19299l1.28052,2.19226,5.78546-3.37948-1.28052-2.19226c-.33813-.57895-.58383-.95262-.73668-1.1219-.32835-.35234-.72202-.52429-1.17966-.51585l3.04535-1.7786c-.23282.39455-.27592.82154-.13019,1.28097.07198.21638.27725.61405.61494,1.19255l3.77981,6.4706c.33813.5785.58339.95262.73668,1.12146.32879.35279.72157.52474,1.17966.51585l-3.04535,1.77905c.23238-.39455.27592-.82154.13019-1.28097-.07198-.21638-.27725-.61405-.61494-1.19255l-1.7786-3.04535Z"/>
      <path class="cls-2" d="m186.60771,202.72478l2.17982,3.85134c.74912-.27503,1.44625-.59539,2.09051-.96017,1.28897-.72957,2.16871-1.63242,2.64013-2.70989l.44654,2.54327-6.75185,3.82158c.24349-.38122.29281-.80732.14751-1.27919-.06931-.21727-.27148-.62249-.60738-1.2161l-3.6825-6.50659c-.33013-.58294-.5705-.95973-.72113-1.13123-.32968-.36745-.72068-.54473-1.17255-.53185l5.38646-3.04846c.23504-.1333.4221-.27948.56162-.43943l1.06814,1.88746c-.44298-.11419-.84598-.12219-1.20943-.02488-.2857.06754-.66959.23727-1.15034.50919-.67492.38211-1.20721.7309-1.59643,1.04548l1.71107,3.02314,2.16338-1.22454c.21505-.12174.379-.2617.49186-.42032l.97261,1.71862c-.39278-.16884-.90152-.07687-1.52534.27592l-1.4427.81666Z"/>
      <path class="cls-2" d="m193.18583,192.40951l5.80456,6.32797c.46076.50252.77978.81577.9575.93973.40388.28392.82465.36834,1.26231.25415l-2.59881,2.38376c.15107-.4261.10353-.8522-.1444-1.27919-.10886-.1875-.39322-.53274-.85398-1.03526l-5.06566-5.52242c-.46076-.50208-.78022-.81532-.95795-.93973-.40344-.28347-.82421-.36834-1.26186-.25415l1.98832-1.82348c.13818-.12707.33813-.31813.5985-.57317.26081-.25459.46031-.44609.59894-.57317.86597-.79444,1.70485-1.23654,2.51573-1.32673,1.01127-.11419,1.84703.18795,2.50684.90685.48475.52874.72157,1.2041.71091,2.02742s-.26481,1.61509-.76378,2.37577c2.28557.43987,4.02774.6998,5.22651.78067s2.20204.01377,3.00981-.20083c-.59361.64026-.97661,1.0397-1.14989,1.19832-.40699.37367-.82065.60116-1.24009.68292s-1.09658.06531-2.03186-.05021c-1.79593-.21905-3.68739-.62915-5.67482-1.23076,1.28585-1.65819,1.44848-3.01158.48697-4.05973-.41322-.45054-.90285-.67536-1.46847-.67492-.56562.00089-1.09969.23149-1.60221.69225-.27725.25415-.56162.57895-.85309.97394Z"/>
      <path class="cls-2" d="m202.14816,178.17757l1.90923.91174c-1.10679.40922-1.9039,1.12279-2.38998,2.14117-.31413.65803-.42255,1.26053-.32613,1.80793.09686.54784.38389.93573.86109,1.16367.40344.19239.82288.19417,1.25831.00444.43543-.18928,1.12723-.67625,2.07496-1.46136,1.11924-.92418,1.96788-1.5289,2.54594-1.81282.766-.37678,1.5209-.38789,2.26291-.03332.84909.40522,1.4427,1.11213,1.78171,2.12073.41721,1.25431.27103,2.62414-.43765,4.10905-.49142,1.02904-1.13745,1.93189-1.93811,2.709l-2.32778-.48608c1.4227-.68869,2.45352-1.70085,3.09156-3.0378.33946-.71046.45987-1.38538.36123-2.0252-.09819-.63982-.39144-1.07614-.8793-1.30896-.47764-.22793-.96372-.23238-1.45914-.01289-.43277.19728-1.16856.72824-2.20693,1.59377-1.03881.86553-1.85014,1.41915-2.43442,1.66086-.8091.33057-1.59554.31324-2.35933-.05154-.91218-.43543-1.45781-1.16145-1.63642-2.17849-.17906-1.0166.03555-2.1616.64337-3.43457.41011-.85931.94506-1.65242,1.60487-2.37932Z"/>
    </g>
    <g>
      <path class="cls-2" d="m53.66304,178.39504c.18069.11391.36163.22722.54282.33997,1.04311.64865,1.76814,1.22443,2.17058,1.75175.79263,1.04562.98663,2.02032.55276,2.9399-.35086.74277-.97505,1.12503-1.87843,1.1284-.25121-.00089-.5708-.02911-.95932-.08641.48834.45964.8725.87828,1.15026,1.25925.83413,1.16994,1.02316,2.28151.53174,3.35088-.31993.69476-.87997,1.18494-1.68855,1.45782-.80862.27295-1.72646.27472-2.74555-.00475-.74581-.19908-1.77613-.6891-3.07365-1.49791-.15011-.09367-.30006-.18767-.44984-.28201-.13206-.08316-.27573-.1741-.43104-.27284-.13803-.10138-.21332-.15646-.22502-.16382-.8959-.57263-1.78604-1.15829-2.67019-1.75711.5013.09288.91869-.03136,1.25083-.36923.14645-.14833.37962-.511.69965-1.08855,1.17297-2.11653,2.34595-4.23305,3.51892-6.34955.32008-.57755.50797-.97083.56402-1.17915.12865-.47418.05859-.92377-.20625-1.3515.80674.55045,1.61903,1.08899,2.43662,1.6156-.01083-.00708.08974.05133.30273.17389.20737.13266.40965.26102.60692.38538Zm-1.49699.54111c-.55537,1.0405-1.11074,2.08096-1.66611,3.12143.20425.15825.42608.31282.6647.46364.86382.54576,1.63947.81578,2.31579.81834.67651.0024,1.14214-.26222,1.39945-.78357.23735-.48091.21806-.99043-.05053-1.53023-.26901-.54024-.74577-1.01961-1.43181-1.44887-.28798-.18039-.6987-.39188-1.23149-.64075Zm-2.23764,4.19218c-.69756,1.30684-1.39508,2.61369-2.09264,3.9205.55552.50357,1.07993.90509,1.56933,1.20692,1.00214.61775,1.87309.90526,2.59837.87515.7259-.03038,1.24273-.37492,1.55462-1.022.34207-.70982.3181-1.42097-.0597-2.13799-.37852-.71748-1.10245-1.39561-2.17168-2.06039-.45986-.2859-.9257-.5464-1.3983-.7822Z"/>
      <path class="cls-2" d="m63.75924,186.62421c-1.01431,2.51308-2.02864,5.02614-3.04295,7.53923.84948.54434,1.71662,1.01291,2.59751,1.40608.7172.31996,1.36704.5143,1.94615.58679.57841.07263,1.26816.04523,2.06282-.08801-.61575.61327-1.23722,1.22249-1.86434,1.82755-2.75822-1.15222-5.48325-2.41245-8.1689-3.78067.50495.02686.90493-.14926,1.19897-.52524.12981-.16501.32342-.55276.58118-1.16328.94477-2.23772,1.88953-4.47542,2.8343-6.71312.2578-.61067.40366-1.0226.4379-1.23515.079-.48409-.0359-.91826-.34117-1.30571,1.13803.58466,2.28391,1.14804,3.43707,1.6902-.46784.00702-.84124.20087-1.12096.58589-.12332.1687-.30939.56073-.55757,1.17545Z"/>
      <path class="cls-2" d="m79.29671,198.02274c-1.70502-.49673-3.40119-1.0336-5.08702-1.6105-.63807.75516-1.28342,1.50592-1.93601,2.25215-.26049.29636-.42805.56461-.50146.8055-.08333.27361.0834.61913.5069,1.03294-1.26405-.43927-2.52243-.90042-3.77455-1.38344.5472-.07065.97321-.20349,1.27989-.39397.30605-.19029.75924-.59517,1.35288-1.21786,1.98099-2.09981,3.89787-4.24202,5.74952-6.42322.23904-.28186.38414-.5173.43704-.70479.08075-.28633-.0464-.58128-.37783-.88611,1.00346.33881,2.01078.66263,3.02156.97142.53693,3.47301,1.18002,6.94621,1.92934,10.41371.17729.80356.36598,1.3985.56064,1.78415.1945.38551.50607.75523.93616,1.1068-1.45877-.3528-2.91238-.73347-4.36002-1.14201.56461-.11421.87099-.28032.92143-.492.032-.13351-.00876-.49463-.11797-1.08391-.1888-1.00943-.36894-2.01907-.5405-3.02885Zm-.2282-1.28433c-.28604-1.73265-.54657-3.4655-.78159-5.19785-1.0704,1.31659-2.16349,2.62018-3.27906,3.91011,1.34724.45502,2.70102.88428,4.06065,1.28773Z"/>
      <path class="cls-2" d="m97.63073,194.46971c-.07872.68765-.15741,1.37534-.23613,2.063-1.1702-.83371-2.3135-1.3454-3.45907-1.53383-1.38139-.22751-2.57196-.03204-3.59903.60655-1.02639.63789-1.66579,1.58333-1.89659,2.85753-.25497,1.4077.02456,2.70308.87523,3.87097.84936,1.16708,2.04482,1.88522,3.5568,2.12639,1.35026.21516,2.94689.05193,4.7478-.51636-.42754.65726-.86034,1.31247-1.29839,1.96555-1.0533.22227-2.18825.24324-3.39147.05461-2.74677-.43156-4.73222-1.53703-5.90514-3.20129-.96841-1.37711-1.26771-2.87799-.94772-4.48309.35423-1.77599,1.3217-3.08644,2.85406-3.97769,1.53492-.89218,3.26157-1.15671,5.24125-.83003.93509.15401,2.08192.49388,3.4584.9977Z"/>
      <path class="cls-2" d="m104.03968,197.26868c-.1525,2.42308-.30499,4.84612-.45747,7.26918-.04166.6611-.04205,1.09625-.00069,1.30537.0921.47574.36288.8316.81416,1.06441-1.36003-.08092-2.71897-.18507-4.07623-.31252.47879-.16173.79729-.47255.95536-.92932.07008-.20084.13084-.63138.18269-1.29207.18995-2.42148.37989-4.84302.56983-7.26451.0518-.66068.06062-1.09628.02686-1.30574-.07582-.47746-.31715-.8372-.72146-1.08315,1.24175.12064,2.4851.21997,3.72953.2981-.43472.17854-.72336.49583-.86543.95564-.063.20158-.11549.63341-.15715,1.2946Zm.1378,3.41008c1.01534-1.04333,2.00771-2.09918,2.97694-3.16669.70291-.77081,1.04987-1.29749,1.05885-1.57094.00922-.29637-.18933-.55959-.59251-.79218,1.18333.04648,2.36729.07382,3.55136.08197-1.5293,1.7684-3.12137,3.50732-4.77522,5.21298,2.10716,2.73718,3.53841,4.3432,4.105,4.90894.47844.47177,1.32198,1.06516,2.55139,1.75621-.58485.06453-1.27345.09752-2.06354.09421-.83148-.00356-1.49686-.19679-1.99017-.57248-.49257-.37619-1.41454-1.40103-2.69798-3.10518-.56564-.75166-1.12158-1.50777-1.66783-2.26822-.08543-.10834-.23802-.30078-.45628-.57863Z"/>
      <path class="cls-2" d="m124.0615,194.43913c-.14529.72963-.29407,1.45918-.44644,2.18863-.20348-.28635-.48442-.45688-.84288-.51262-.21805-.03551-.57803-.02867-1.08002.0161-.07544.00674-.22864.02899-.45959.06537-.23152.03685-.54204.07121-.93167.10091-.10675.00812-.2135.01614-.32027.02397.16597,2.78021.33195,5.56036.49792,8.34055.03519.59021.1347,1.01877.30032,1.28511.16563.26666.48692.51236.9664.7332-1.41887.12181-2.83946.21828-4.26109.28935.45477-.22794.73224-.57986.83325-1.05284.04466-.21907.05254-.65257.02388-1.30037-.12032-2.72214-.24065-5.44427-.36096-8.1664-.42961-.01027-.96477-.00035-1.60649.02576-.60411.02443-1.05635.07222-1.35719.14932-.38911.10233-.79546.30554-1.22202.60899.23845-.71628.47292-1.43317.70326-2.15063.26253.07352.6003.10471,1.01144.09128,2.4731-.08098,4.94414-.24574,7.40866-.49431.16144-.0162.40866-.05276.742-.11192.061-.01765.19479-.06062.40147-.12944Z"/>
      <path class="cls-2" d="m132.84198,192.90663c1.98415-.38725,3.73552-.18904,5.31406.62526,1.5759.81271,2.57578,2.03818,2.95172,3.73079.37549,1.68982-.02625,3.32556-1.27194,4.88043-1.24403,1.55231-2.98778,2.57693-5.17969,3.00888-2.20572.43417-4.15366.14719-5.7787-.81995-1.62704-.96881-2.50592-2.35825-2.68864-4.11618-.0838-.80112.04266-1.63351.36717-2.4996.32455-.8663.7865-1.60938,1.38428-2.23514,1.29939-1.34702,2.91695-2.18781,4.90175-2.57449Zm.0777,1.29642c-1.4606.28329-2.5957.91727-3.42946,1.9337-.83313,1.01521-1.18301,2.18587-1.02002,3.52467.17935,1.47227.88574,2.6653,2.15648,3.54735,1.0593.73196,2.36435.9592,3.88321.65996,1.57231-.31015,2.77333-1.02225,3.58028-2.09917.80771-1.07806,1.05698-2.30682.77844-3.67537-.27396-1.34732-.96402-2.38116-2.04362-3.12726-1.15594-.7984-2.44525-1.04752-3.9053-.76389Z"/>
      <path class="cls-2" d="m151.77204,191.16126c-.09148,3.21396-.25465,6.44202-.49008,9.68111-.33742-.07104-.70985-.14294-1.11649-.2162-.6333-.11386-1.06924-.25253-1.31036-.40865-.24147-.1553-.56102-.4982-.95685-1.02899-1.46153-1.96187-2.88222-3.94963-4.2616-5.96176-.49847-.72935-.87506-1.21812-1.13647-1.46407-.26195-.24567-.59782-.44418-1.00787-.597.93199-.26154,1.86128-.53571,2.78766-.82249.00407.11572.00911.18475.01476.20648.04797.18457.18579.44138.41541.76865,1.71729,2.45747,3.49698,4.87712,5.33804,7.25613.19135-2.54979.33719-5.09279.43788-7.62746.02658-.6994-.01202-1.2088-.11166-1.52887-.1264-.40524-.48505-.65753-1.07181-.76448.86734-.31538,1.7316-.64214,2.59256-.98024.00964.15176.02695.26431.05124.33846.09059.27596.30583.62782.64937,1.05463,1.74791,2.16386,3.54817,4.29039,5.39969,6.37718.04504-2.47247.04758-4.93558.00807-7.38794-.01427-.80864-.07109-1.33153-.16206-1.57013-.21809-.57016-.69618-.80063-1.43193-.70284.92427-.41168,1.84413-.83679,2.75938-1.27539.20799,4.34525.28603,8.728.23199,13.1407-.29582-.04076-.58717-.07216-.87383-.09409-.74826-.07845-1.25085-.18623-1.51257-.31229-.26149-.1263-.62135-.4558-1.07532-.99178-1.42096-1.67305-2.81018-3.36967-4.16714-5.08868Z"/>
      <path class="cls-2" d="m164.78093,184.41556c.95204,2.12427,1.9041,4.2485,2.85616,6.37276.23466.52368.47942.87576.73567,1.05566.25601.17958.62866.26723,1.11807.25957-1.15338.64098-2.31491,1.26146-3.48398,1.86142.32764-.44092.50381-.82224.53258-1.14169.02838-.31937-.0752-.74744-.30835-1.28464-.9832-2.26479-1.96642-4.52959-2.9496-6.79439-.22864-.5266-.46524-.88463-.70848-1.07518-.2433-.19057-.59343-.29759-1.04878-.32539.8784-.4472,1.75224-.90704,2.62112-1.3795.04987.04759.27893.16743.69063.35521,3.35406,1.27985,6.81818,2.39233,10.38039,3.32166-1.06143-1.99515-2.12286-3.99036-3.18428-5.9855-.26727-.50215-.52911-.83308-.78337-.99376-.25439-.16066-.6189-.23216-1.09225-.21797,1.03699-.65233,2.06567-1.32372,3.08568-2.01411-.25011.45805-.37199.84322-.36304,1.15756.00867.31453.15173.72572.42978,1.2337,1.58742,2.8994,3.17482,5.79878,4.76222,8.69818-1.04463.37054-2.19627.39493-3.43639.06625-3.37634-.89832-6.66425-1.95935-9.85378-3.16983Z"/>
    </g>
    <path class="cls-2" d="m111.37378,93.64944l8.06395,16.33947,18.03173,2.62016-13.04801,12.71856,3.08023,17.95918-16.1279-8.47937-16.12824,8.4787,3.08023-17.95851-13.04801-12.71856,18.03173-2.62048,8.06429-16.33915m.00003-3.88512l-1.54191,3.12411-7.66423,15.52859-17.13721,2.49047-3.4477.50105,2.49479,2.4318,12.40069,12.08758-2.9274,17.06755-.58897,3.43377,3.08378-1.62115,15.3281-8.05806,15.32777,8.05869,3.08383,1.62135-.58897-3.43392-2.92742-17.06822,12.40071-12.0876,2.49486-2.43187-3.4478-.50099-17.13715-2.49018-7.66388-15.52884-1.54186-3.12415h0Z"/>
    <g>
      <path class="cls-2" d="m129.50751,161.09639s1.26953,5.07811-.50781,7.99803c0,0,3.74511-.95215,9.45798.50781,0,0-3.04687,3.61815-8.69627,3.2373-5.6494-.38086-6.7285,0-9.45798,1.333s-2.98339,1.65039-3.55468,0,2.79296-1.71386,5.14159-2.03124,3.30077-1.65039,3.30077-1.65039c0,0-.50781-4.69725,4.3164-9.39451Z"/>
      <path class="cls-2" d="m139.02897,152.01926s-3.4912,2.91991-3.61815,13.39352c0,0,7.87107,1.26953,13.58395-4.88768,0,0-4.5703-1.45996-10.09275,1.39648,0,0,2.1582-5.26854.12695-9.90232Z"/>
      <path class="cls-2" d="m142.20279,156.33566s.50781-1.52343,0-5.07811.50781-9.07712,2.4121-12.06052c0,0,2.79296,5.20506,1.45996,11.93356,0,0,3.2373-3.42773,10.02927-4.88768,0,0-.88867,6.85545-13.90133,10.09275Z"/>
      <path class="cls-2" d="m149.75648,142.05347s-.06658-3.2373-.66805-5.77635-1.49325-6.09373,0-11.36228c0,0,4.01873,4.35039,2.88973,13.7109,0,0,3.80858-7.23631,8.25193-9.52146,0,0,.76172,10.34665-10.47361,12.94919Z"/>
      <path class="cls-2" d="m154.83459,126.12089s-.82519-2.4121-1.96777-3.80858-3.30077-5.20506-2.66601-9.26755c0,0,3.55468,2.60253,5.01464,7.55369,0,0,1.26953-5.96678,5.45897-8.56931,0,0,.50781,6.60155-2.1582,9.71189s-3.68163,4.37987-3.68163,4.37987Z"/>
      <path class="cls-2" d="m154.83459,110.82308s-8.31541-4.76073-8.63279-11.93356c0,0,5.58592,1.45996,7.74412,7.36326,0,0,.06348-6.03026,3.17382-10.85446,0,0,1.39648,11.04489-2.28515,15.42476Z"/>
      <path class="cls-2" d="m152.16859,95.90613s.19043-5.14159,0-7.74412-2.4121-5.77635-3.17382-6.47459c0,0-1.93754,6.02938.63476,9.58494,0,0-4.44335-4.95116-10.53708-5.83983,0,0,2.09472,5.90331,7.10936,7.93455s5.96678,2.53906,5.96678,2.53906Z"/>
      <path class="cls-2" d="m144.99575,84.03604s-1.71386-1.65039-3.36425-1.84082-7.87107-.82519-10.98142-6.79197c0,0,6.7285-.44433,11.5527,4.3164,0,0-2.34863-3.93554-1.65039-10.2197,0,0,3.30077,2.57079,4.44335,5.36376s.03174,6.63328,0,9.17234Z"/>
      <path class="cls-2" d="m136.8073,73.7846s-2.83528-6.56981-13.07614-7.10936c0,0,4.65494,5.74461,13.07614,7.10936Z"/>
    </g>
    <g>
      <path class="cls-2" d="m92.8772,161.09639s-1.26953,5.07811.50781,7.99803c0,0-3.74511-.95215-9.45798.50781,0,0,3.04687,3.61815,8.69627,3.2373,5.6494-.38086,6.7285,0,9.45798,1.333s2.98339,1.65039,3.55468,0-2.79296-1.71386-5.14159-2.03124-3.30077-1.65039-3.30077-1.65039c0,0,.50781-4.69725-4.3164-9.39451Z"/>
      <path class="cls-2" d="m83.35574,152.01926s3.4912,2.91991,3.61815,13.39352c0,0-7.87107,1.26953-13.58395-4.88768,0,0,4.5703-1.45996,10.09275,1.39648,0,0-2.1582-5.26854-.12695-9.90232Z"/>
      <path class="cls-2" d="m80.18192,156.33566s-.50781-1.52343,0-5.07811-.50781-9.07712-2.4121-12.06052c0,0-2.79296,5.20506-1.45996,11.93356,0,0-3.2373-3.42773-10.02927-4.88768,0,0,.88867,6.85545,13.90133,10.09275Z"/>
      <path class="cls-2" d="m72.62823,142.05347s.06658-3.2373.66805-5.77635,1.49325-6.09373,0-11.36228c0,0-4.01873,4.35039-2.88973,13.7109,0,0-3.80858-7.23631-8.25193-9.52146,0,0-.76172,10.34665,10.47361,12.94919Z"/>
      <path class="cls-2" d="m67.55012,126.12089s.82519-2.4121,1.96777-3.80858,3.30077-5.20506,2.66601-9.26755c0,0-3.55468,2.60253-5.01464,7.55369,0,0-1.26953-5.96678-5.45897-8.56931,0,0-.50781,6.60155,2.1582,9.71189,2.66601,3.11034,3.68163,4.37987,3.68163,4.37987Z"/>
      <path class="cls-2" d="m67.55012,110.82308s8.31541-4.76073,8.63279-11.93356c0,0-5.58592,1.45996-7.74412,7.36326,0,0-.06348-6.03026-3.17382-10.85446,0,0-1.39648,11.04489,2.28515,15.42476Z"/>
      <path class="cls-2" d="m70.21613,95.90613s-.19043-5.14159,0-7.74412,2.4121-5.77635,3.17382-6.47459c0,0,1.93754,6.02938-.63476,9.58494,0,0,4.44335-4.95116,10.53708-5.83983,0,0-2.09472,5.90331-7.10936,7.93455s-5.96678,2.53906-5.96678,2.53906Z"/>
      <path class="cls-2" d="m77.38896,84.03604s1.71386-1.65039,3.36425-1.84082,7.87107-.82519,10.98142-6.79197c0,0-6.7285-.44433-11.5527,4.3164,0,0,2.34863-3.93554,1.65039-10.2197,0,0-3.30077,2.57079-4.44335,5.36376s-.03174,6.63328,0,9.17234Z"/>
      <path class="cls-2" d="m85.57741,73.7846s2.83528-6.56981,13.07614-7.10936c0,0-4.65494,5.74461-13.07614,7.10936Z"/>
    </g>
    <polygon class="cls-2" points="116.35435 65.67327 112.81079 65.67327 112.81079 61.78731 109.95342 61.78731 109.95342 65.67327 106.40986 65.67327 106.40986 68.53064 109.95342 68.53064 109.95342 75.802 112.81079 75.802 112.81079 68.53064 116.35435 68.53064 116.35435 65.67327"/>
    <circle class="cls-2" cx="111.37364" cy="248.19328" r="1.68407"/>
    <g>
      <path class="cls-2" d="m95.17294,86.61106c-.36345.41944-.45076.92329-.26193,1.51179.18861.5885.62982,1.183,1.3234,1.78393.71357.61805,1.36628.97861,1.95811,1.08169.59183.10286,1.07547-.0622,1.45092-.49564.2306-.26615.42521-.62915.58406-1.08858l.55562.4812c-.08753.38744-.29925.77511-.63537,1.163-.48697.56228-1.10635.78489-1.85836.66825-.75179-.11663-1.57644-.56384-2.47396-1.34117-.56184-.48675-.99038-.98661-1.28563-1.50002-.29525-.51296-.43699-1.00749-.42521-1.48313.01177-.47586.18039-.90152.50608-1.27741.34657-.40033.75401-.65959,1.2221-.77822l.38167.65959c-.4441.12108-.79133.32591-1.04148.61471Z"/>
      <path class="cls-2" d="m104.77086,87.38728l-.49475.31613-1.8277-2.86029-2.24092,1.43181,1.8277,2.86052-.49475.31613-3.88378-6.07849.49475-.31613,1.65242,2.58593,2.24092-1.43181-1.65242-2.58593.49475-.31613,3.88378,6.07826Z"/>
      <path class="cls-2" d="m105.56974,83.99581l.82821,2.88318-.56428.16195-1.99143-6.93269,1.33118-.38256c.59516-.17084,1.08191-.13441,1.45981.10952s.6607.69314.84865,1.34739c.26348.91685.11619,1.62998-.44187,2.13939l2.2127,2.737-.66714.1915-2.00321-2.5455-1.0126.29081Zm-.19883-.69247l.77356-.22216c.39833-.11441.65781-.31124.77889-.59072.12085-.27948.11641-.64515-.01333-1.09724-.13174-.45831-.32124-.76156-.5685-.90952s-.58006-.16195-.99838-.04177l-.73357.21061.76134,2.6508Z"/>
      <path class="cls-2" d="m109.96182,86.10298l-.61605-7.18684.58517-.05021.61582,7.18684-.58494.05021Z"/>
      <path class="cls-2" d="m114.84287,84.33016c-.05954.63204-.26659,1.10968-.62116,1.43292-.35368.32346-.80599.4592-1.35606.40722-.59627-.05643-1.04437-.20927-1.3445-.45898l.0762-.80555c.19417.14396.40988.26326.64626.35834.23549.09486.47275.15373.7118.17617.38922.03688.69314-.0411.90996-.23371s.34301-.4772.37856-.85376c.02399-.24882.008-.45587-.0471-.62138s-.15818-.32302-.30924-.47275-.38567-.32546-.70469-.5274c-.44521-.28325-.75179-.59805-.92151-.9444s-.23016-.78333-.18039-1.31051c.05243-.5534.23993-.98016.56162-1.28008.32257-.29991.72246-.42743,1.20143-.38211.5003.0471.94728.22171,1.34184.52318l-.2506.7098c-.39189-.28814-.78289-.45054-1.17478-.48764-.31013-.02932-.56073.04288-.75267.21638s-.30391.42899-.3359.76623c-.02399.24882-.01066.45565.03821.62049.04887.16506.14396.3208.28347.46787.1404.14707.3599.31569.65848.50563.50208.31835.83709.64093,1.00682.96728.16884.32657.23016.73557.18395,1.22676Z"/>
      <path class="cls-2" d="m116.93605,86.95874l-.5554-.19061,2.09762-6.11847-1.51246-.51852.24171-.70491,3.58075,1.22787-.24171.70469-1.5129-.51874-2.09762,6.1187Z"/>
      <path class="cls-2" d="m126.16453,83.87651l-2.64769,3.84379c-.46653.67736-.97617,1.11102-1.52934,1.30118s-1.08014.11286-1.58044-.23193c-.50075-.34501-.75356-.80666-.75889-1.38538-.00533-.57895.22705-1.20965.69713-1.89213l2.63614-3.82757.48386.33302-2.6699,3.87623c-.34168.49564-.50874.94173-.50208,1.33762.00666.39611.19417.72091.56206.97417.35057.24171.71269.29436,1.08591.15818.37367-.13618.73179-.45343,1.07525-.95195l2.66413-3.86823.48386.33302Z"/>
      <path class="cls-2" d="m126.12454,91.57609c-.48653.40788-.9695.60205-1.44892.58317s-.89619-.24015-1.2512-.66359c-.38478-.45898-.59583-.88264-.63404-1.27119l.62027-.51963c.03732.23904.10664.47542.20794.70891s.22882.4421.38256.6256c.25148.29991.52207.45787.81177.4732.2897.01555.57939-.09797.86953-.34101.1915-.16062.32613-.31902.403-.4752.07731-.1564.11463-.34079.11241-.55362s-.04576-.50297-.13063-.87042c-.11774-.5143-.11508-.95417.00755-1.31985s.387-.71868.79311-1.05881c.4261-.35701.85887-.52896,1.29874-.51607s.81443.20372,1.12368.5725c.32213.38478.51807.8231.58694,1.31496l-.67758.32879c-.07598-.48009-.24038-.87086-.49319-1.17278-.1995-.23815-.42877-.36301-.68736-.37478-.25859-.01155-.51763.09153-.77756.30902-.1915.16062-.32791.3168-.40877.46875-.08087.15173-.12308.32924-.12663.53207-.004.20283.03377.47697.11286.82243.1333.57895.14529,1.04415.03643,1.39538-.1093.35123-.35279.68536-.7309,1.00216Z"/>
    </g>
    <g>
      <path class="cls-2" d="m97.21857,154.48923l-2.05875,2.18204-.42699-.403,4.95014-5.2465,1.00727.9504c.45054.42521.66714.86242.64981,1.31207-.01733.44921-.25948.92151-.7269,1.41693-.65448.69358-1.34317.9304-2.06563.71002l-1.22743,3.29861-.50497-.47675,1.16944-3.02091-.766-.7229Zm.4943-.52385l.58517.55229c.30147.28436.60316.40744.9053.36923s.61449-.22838.93729-.5705c.32724-.34701.49164-.6647.49297-.95262.00111-.28836-.1564-.58206-.47298-.88064l-.55517-.52385-1.89257,2.00609Z"/>
      <path class="cls-2" d="m102.1114,161.57342l-2.48129-1.32895,3.40458-6.35907,2.48151,1.32895-.35168.6567-1.96388-1.0517-1.0968,2.04875,1.84503.98772-.34923.6527-1.84503-.98816-1.25298,2.34022,1.96388,1.0517-.35412.66114Z"/>
      <path class="cls-2" d="m108.31718,159.44203l1.68596.32257-.65937,3.44524c-.28525.06931-.56939.10886-.85242.11819s-.60338-.01999-.96061-.08842c-.7509-.14351-1.2743-.5745-1.57066-1.29252s-.33435-1.65197-.11419-2.80231c.14085-.73668.36789-1.36183.68069-1.87635.31302-.51452.6918-.88064,1.13679-1.0988.44498-.21772.92862-.27681,1.45092-.17684.52918.1013.99549.33457,1.39916.6998l-.36279.6838c-.39589-.35679-.80066-.57495-1.21454-.65448-.60383-.11552-1.12457.0511-1.562.49986s-.74334,1.12901-.91774,2.03986c-.18306.95617-.1584,1.71284.07376,2.26957s.66492.89574,1.29807,1.01704c.3439.06576.69047.07331,1.03993.0231l.41744-2.18071-1.10924-.21238.14085-.73623Z"/>
      <path class="cls-2" d="m117.50078,162.81263l-.65981.11552-3.76337-5.48643-.0271.00489c.15907.69314.2897,1.33162.39189,1.91501l.7078,4.0384-.53407.09331-1.24542-7.10464.65315-.11463,3.75226,5.46333.0271-.00489c-.01999-.08664-.07953-.36567-.17817-.83754-.09908-.47187-.1644-.81044-.1955-1.01527l-.71491-4.0775.54073-.09464,1.24542,7.10508Z"/>
      <path class="cls-2" d="m124.1922,159.86902l-1.66575-1.69818-1.76794.98505.57361,2.30645-.51896.28925-1.78127-7.2988.43143-.24038,5.25983,5.36069-.53096.29592Zm-2.19315-2.26869l-1.60043-1.66664c-.20394-.21016-.44121-.47498-.7118-.79488.1093.30036.21505.63893.31635,1.01527l.56917,2.24158,1.4267-.79533Z"/>
      <path class="cls-2" d="m127.90847,156.76591l-.41899.41144-4.53248-4.61468-1.14056,1.12057-.52207-.5314,2.70012-2.65258.52207.53185-1.14056,1.12012,4.53248,4.61468Z"/>
    </g>
  </g>
</svg>